<?xml version="1.0" encoding="UTF-8"?>
<!DOCTYPE svg PUBLIC "-//W3C//DTD SVG 1.1//EN" "http://www.w3.org/Graphics/SVG/1.1/DTD/svg11.dtd">
<svg xmlns="http://www.w3.org/2000/svg" version="1.1" width="511px" height="386px" style="shape-rendering:geometricPrecision; text-rendering:geometricPrecision; image-rendering:optimizeQuality; fill-rule:evenodd; clip-rule:evenodd" xmlns:xlink="http://www.w3.org/1999/xlink">
<g><path style="opacity:0.254" fill="#ebebeb" d="M 250.5,14.5 C 246.833,14.5 243.167,14.5 239.5,14.5C 243.199,11.9348 246.865,11.9348 250.5,14.5 Z"/></g>
<g><path style="opacity:0.058" fill="#e5e5e5" d="M 237.5,17.5 C 237.5,24.8333 237.5,32.1667 237.5,39.5C 233.833,39.5 230.167,39.5 226.5,39.5C 229.507,37.8255 232.84,37.1588 236.5,37.5C 236.176,30.6457 236.509,23.979 237.5,17.5 Z"/></g>
<g><path style="opacity:0.482" fill="#d6d6d6" d="M 251.5,36.5 C 253.713,37.6053 255.88,37.6053 258,36.5C 259.878,37.0527 261.378,38.0527 262.5,39.5C 258.833,39.5 255.167,39.5 251.5,39.5C 251.5,38.5 251.5,37.5 251.5,36.5 Z"/></g>
<g><path style="opacity:1" fill="#a8a8a8" d="M 239.5,14.5 C 243.167,14.5 246.833,14.5 250.5,14.5C 251.997,16.2897 252.664,18.4563 252.5,21C 251.775,26.1435 251.441,31.3101 251.5,36.5C 251.5,37.5 251.5,38.5 251.5,39.5C 255.167,39.5 258.833,39.5 262.5,39.5C 263.404,40.209 263.737,41.209 263.5,42.5C 263.5,49.5 263.5,56.5 263.5,63.5C 263.167,63.5 262.833,63.5 262.5,63.5C 262.825,55.6484 262.492,47.9818 261.5,40.5C 258.167,40.5 254.833,40.5 251.5,40.5C 251.5,46.8333 251.5,53.1667 251.5,59.5C 251.5,60.1667 251.5,60.8333 251.5,61.5C 251.5,62.1667 251.5,62.8333 251.5,63.5C 250.833,55.8333 250.167,48.1667 249.5,40.5C 246.167,40.5 242.833,40.5 239.5,40.5C 239.826,48.6841 239.492,56.6841 238.5,64.5C 238.826,56.3159 238.492,48.3159 237.5,40.5C 234.5,40.5 231.5,40.5 228.5,40.5C 226.535,47.7605 225.868,55.4271 226.5,63.5C 226.5,63.8333 226.5,64.1667 226.5,64.5C 226.167,64.5 225.833,64.5 225.5,64.5C 221.833,64.5 218.167,64.5 214.5,64.5C 214.5,72.1667 214.5,79.8333 214.5,87.5C 217.962,88.4816 221.629,88.815 225.5,88.5C 222.713,89.4767 219.713,89.81 216.5,89.5C 214.847,96.9458 213.847,104.612 213.5,112.5C 213.5,104.833 213.5,97.1667 213.5,89.5C 210.038,88.5184 206.371,88.185 202.5,88.5C 205.962,87.5184 209.629,87.185 213.5,87.5C 213.5,79.8333 213.5,72.1667 213.5,64.5C 213.5,63.8333 213.833,63.5 214.5,63.5C 218.167,63.5 221.833,63.5 225.5,63.5C 225.5,56.1667 225.5,48.8333 225.5,41.5C 225.328,40.5084 225.662,39.8417 226.5,39.5C 230.167,39.5 233.833,39.5 237.5,39.5C 237.5,32.1667 237.5,24.8333 237.5,17.5C 237.328,16.5084 237.662,15.8417 238.5,15.5C 238.5,14.8333 238.833,14.5 239.5,14.5 Z"/></g>
<g><path style="opacity:0.603" fill="#6c6c6c" d="M 238.5,15.5 C 242.5,15.5 246.5,15.5 250.5,15.5C 250.5,23.5 250.5,31.5 250.5,39.5C 246.5,39.5 242.5,39.5 238.5,39.5C 238.5,31.5 238.5,23.5 238.5,15.5 Z"/></g>
<g><path style="opacity:1" fill="#343435" d="M 239.5,16.5 C 242.833,16.5 246.167,16.5 249.5,16.5C 249.5,23.8333 249.5,31.1667 249.5,38.5C 246.167,38.5 242.833,38.5 239.5,38.5C 239.5,31.1667 239.5,23.8333 239.5,16.5 Z"/></g>
<g><path style="opacity:0.89" fill="#5a5a5a" d="M 228.5,40.5 C 227.536,47.7463 227.203,55.0796 227.5,62.5C 230.833,62.5 234.167,62.5 237.5,62.5C 234.038,63.4816 230.371,63.815 226.5,63.5C 225.868,55.4271 226.535,47.7605 228.5,40.5 Z"/></g>
<g><path style="opacity:1" fill="#353535" d="M 228.5,40.5 C 231.5,40.5 234.5,40.5 237.5,40.5C 237.5,47.8333 237.5,55.1667 237.5,62.5C 234.167,62.5 230.833,62.5 227.5,62.5C 227.203,55.0796 227.536,47.7463 228.5,40.5 Z"/></g>
<g><path style="opacity:1" fill="#848484" d="M 237.5,40.5 C 238.492,48.3159 238.826,56.3159 238.5,64.5C 234.5,64.5 230.5,64.5 226.5,64.5C 226.5,64.1667 226.5,63.8333 226.5,63.5C 230.371,63.815 234.038,63.4816 237.5,62.5C 237.5,55.1667 237.5,47.8333 237.5,40.5 Z"/></g>
<g><path style="opacity:1" fill="#fcfdfc" d="M 249.5,63.5 C 249.611,64.1174 249.944,64.6174 250.5,65C 254.152,65.4986 257.818,65.6653 261.5,65.5C 261.5,71.8333 261.5,78.1667 261.5,84.5C 261.616,87.9103 259.95,89.2436 256.5,88.5C 253.315,88.0196 250.481,88.6863 248,90.5C 246.894,96.9738 246.061,103.474 245.5,110C 240.796,110.648 236.129,110.481 231.5,109.5C 233.171,116.286 234.004,123.286 234,130.5C 234.5,131 235,131.5 235.5,132C 234.045,133.626 232.378,134.792 230.5,135.5C 228.856,135.286 227.356,135.62 226,136.5C 225.5,144.159 225.334,151.826 225.5,159.5C 221.894,159.789 218.394,159.456 215,158.5C 213.154,161.569 212.154,164.902 212,168.5C 210.887,169.711 209.72,169.711 208.5,168.5C 207.605,170.246 206.938,172.08 206.5,174C 207.464,176.598 209.13,177.098 211.5,175.5C 212.48,178.086 212.813,180.753 212.5,183.5C 209.635,183.945 207.135,183.278 205,181.5C 203.667,182.833 202.333,184.167 201,185.5C 200.5,193.159 200.334,200.826 200.5,208.5C 196.5,208.5 192.5,208.5 188.5,208.5C 188.5,214.5 188.5,220.5 188.5,226.5C 187.448,226.351 186.448,226.517 185.5,227C 186.406,228.699 186.739,230.533 186.5,232.5C 183.421,232.26 180.421,232.593 177.5,233.5C 176.5,265.826 176.167,298.16 176.5,330.5C 173.5,330.5 170.5,330.5 167.5,330.5C 167.5,326.5 167.5,322.5 167.5,318.5C 163.167,318.5 158.833,318.5 154.5,318.5C 154.825,311.313 154.491,304.313 153.5,297.5C 153.5,297.167 153.5,296.833 153.5,296.5C 153.672,295.508 153.338,294.842 152.5,294.5C 149.375,293.521 146.042,293.187 142.5,293.5C 142.5,274.5 142.5,255.5 142.5,236.5C 146.042,236.813 149.375,236.479 152.5,235.5C 153.15,235.196 153.817,234.863 154.5,234.5C 155.497,227.197 155.831,219.863 155.5,212.5C 158.833,212.5 162.167,212.5 165.5,212.5C 166.232,204.867 166.732,197.2 167,189.5C 170.019,187.943 173.186,186.943 176.5,186.5C 177.117,186.389 177.617,186.056 178,185.5C 178.5,178.174 178.666,170.841 178.5,163.5C 182.649,164.08 186.316,163.414 189.5,161.5C 190.492,154.018 190.825,146.352 190.5,138.5C 194.371,138.815 198.038,138.482 201.5,137.5C 201.833,137.5 202.167,137.5 202.5,137.5C 203.117,137.389 203.617,137.056 204,136.5C 204.5,129.174 204.666,121.841 204.5,114.5C 208.106,114.789 211.606,114.456 215,113.5C 215.198,105.422 215.698,97.4218 216.5,89.5C 219.713,89.81 222.713,89.4767 225.5,88.5C 225.833,88.5 226.167,88.5 226.5,88.5C 227.492,81.0182 227.825,73.3516 227.5,65.5C 231.167,65.5 234.833,65.5 238.5,65.5C 240.467,57.9032 241.134,49.9032 240.5,41.5C 243.167,41.5 245.833,41.5 248.5,41.5C 248.175,49.0191 248.508,56.3524 249.5,63.5 Z"/></g>
<g><path style="opacity:1" fill="#ededed" d="M 249.5,40.5 C 249.5,48.1667 249.5,55.8333 249.5,63.5C 248.508,56.3524 248.175,49.0191 248.5,41.5C 245.833,41.5 243.167,41.5 240.5,41.5C 241.134,49.9032 240.467,57.9032 238.5,65.5C 238.5,65.1667 238.5,64.8333 238.5,64.5C 239.492,56.6841 239.826,48.6841 239.5,40.5C 242.833,40.5 246.167,40.5 249.5,40.5 Z"/></g>
<g><path style="opacity:1" fill="#303030" d="M 261.5,59.5 C 258.663,61.4023 255.329,62.069 251.5,61.5C 251.5,60.8333 251.5,60.1667 251.5,59.5C 252.117,59.3893 252.617,59.056 253,58.5C 253.499,52.8431 253.666,47.1764 253.5,41.5C 255.833,41.5 258.167,41.5 260.5,41.5C 260.177,47.69 260.51,53.69 261.5,59.5 Z"/></g>
<g><path style="opacity:0.976" fill="#3d3d3d" d="M 261.5,40.5 C 261.5,46.8333 261.5,53.1667 261.5,59.5C 260.51,53.69 260.177,47.69 260.5,41.5C 258.167,41.5 255.833,41.5 253.5,41.5C 253.666,47.1764 253.499,52.8431 253,58.5C 252.617,59.056 252.117,59.3893 251.5,59.5C 251.5,53.1667 251.5,46.8333 251.5,40.5C 254.833,40.5 258.167,40.5 261.5,40.5 Z"/></g>
<g><path style="opacity:0.12" fill="#e3e3e3" d="M 225.5,41.5 C 225.5,48.8333 225.5,56.1667 225.5,63.5C 221.833,63.5 218.167,63.5 214.5,63.5C 217.413,61.9976 220.58,60.9976 224,60.5C 224.172,53.9867 224.672,47.6534 225.5,41.5 Z"/></g>
<g><path style="opacity:1" fill="#525252" d="M 261.5,40.5 C 262.492,47.9818 262.825,55.6484 262.5,63.5C 258.833,63.5 255.167,63.5 251.5,63.5C 251.5,62.8333 251.5,62.1667 251.5,61.5C 255.329,62.069 258.663,61.4023 261.5,59.5C 261.5,53.1667 261.5,46.8333 261.5,40.5 Z"/></g>
<g><path style="opacity:0.374" fill="#e6e6e6" d="M 263.5,42.5 C 264.328,48.3193 264.828,54.3193 265,60.5C 268.572,60.8326 271.739,61.8326 274.5,63.5C 270.833,63.5 267.167,63.5 263.5,63.5C 263.5,56.5 263.5,49.5 263.5,42.5 Z"/></g>
<g><path style="opacity:1" fill="#cccccc" d="M 249.5,40.5 C 250.167,48.1667 250.833,55.8333 251.5,63.5C 254.962,64.4816 258.629,64.815 262.5,64.5C 262.5,71.1667 262.5,77.8333 262.5,84.5C 262.167,84.5 261.833,84.5 261.5,84.5C 261.5,78.1667 261.5,71.8333 261.5,65.5C 257.818,65.6653 254.152,65.4986 250.5,65C 249.944,64.6174 249.611,64.1174 249.5,63.5C 249.5,55.8333 249.5,48.1667 249.5,40.5 Z"/></g>
<g><path style="opacity:1" fill="#343434" d="M 225.5,83.5 C 225.5,84.5 225.5,85.5 225.5,86.5C 222.167,86.5 218.833,86.5 215.5,86.5C 215.5,79.5 215.5,72.5 215.5,65.5C 218.5,65.5 221.5,65.5 224.5,65.5C 224.177,71.69 224.51,77.69 225.5,83.5 Z"/></g>
<g><path style="opacity:0.172" fill="#dedddd" d="M 275.5,65.5 C 276.49,71.31 276.823,77.31 276.5,83.5C 276.5,84.5 276.5,85.5 276.5,86.5C 280.042,86.1872 283.375,86.5206 286.5,87.5C 282.833,87.5 279.167,87.5 275.5,87.5C 275.5,80.1667 275.5,72.8333 275.5,65.5 Z"/></g>
<g><path style="opacity:1" fill="#8c8c8c" d="M 225.5,64.5 C 225.833,64.5 226.167,64.5 226.5,64.5C 226.5,72.5 226.5,80.5 226.5,88.5C 226.167,88.5 225.833,88.5 225.5,88.5C 221.629,88.815 217.962,88.4816 214.5,87.5C 218.371,87.815 222.038,87.4816 225.5,86.5C 225.5,85.5 225.5,84.5 225.5,83.5C 225.5,77.1667 225.5,70.8333 225.5,64.5 Z"/></g>
<g><path style="opacity:1" fill="#d3d3d3" d="M 226.5,64.5 C 230.5,64.5 234.5,64.5 238.5,64.5C 238.5,64.8333 238.5,65.1667 238.5,65.5C 234.833,65.5 231.167,65.5 227.5,65.5C 227.825,73.3516 227.492,81.0182 226.5,88.5C 226.5,80.5 226.5,72.5 226.5,64.5 Z"/></g>
<g><path style="opacity:1" fill="#919597" d="M 251.5,63.5 C 255.167,63.5 258.833,63.5 262.5,63.5C 262.833,63.5 263.167,63.5 263.5,63.5C 267.167,63.5 270.833,63.5 274.5,63.5C 275.338,63.8417 275.672,64.5084 275.5,65.5C 275.5,72.8333 275.5,80.1667 275.5,87.5C 279.167,88.1667 282.833,88.8333 286.5,89.5C 283.167,89.5 279.833,89.5 276.5,89.5C 275.508,96.6476 275.175,103.981 275.5,111.5C 274.508,104.352 274.175,97.0191 274.5,89.5C 270.629,89.815 266.962,89.4816 263.5,88.5C 263.167,88.5 262.833,88.5 262.5,88.5C 262.5,87.1667 262.5,85.8333 262.5,84.5C 262.5,77.8333 262.5,71.1667 262.5,64.5C 258.629,64.815 254.962,64.4816 251.5,63.5 Z"/></g>
<g><path style="opacity:1" fill="#353635" d="M 263.5,65.5 C 266.833,65.5 270.167,65.5 273.5,65.5C 273.5,72.5 273.5,79.5 273.5,86.5C 270.167,86.5 266.833,86.5 263.5,86.5C 263.5,79.5 263.5,72.5 263.5,65.5 Z"/></g>
<g><path style="opacity:0.242" fill="#dfdfdf" d="M 213.5,64.5 C 213.5,72.1667 213.5,79.8333 213.5,87.5C 209.629,87.185 205.962,87.5184 202.5,88.5C 201.539,90.2646 201.205,92.2646 201.5,94.5C 200.833,94.5 200.5,94.8333 200.5,95.5C 199.357,92.9321 199.524,90.2654 201,87.5C 204.749,86.2596 208.415,84.9262 212,83.5C 212.172,76.9867 212.672,70.6534 213.5,64.5 Z"/></g>
<g><path style="opacity:0.918" fill="#4f4f4f" d="M 225.5,64.5 C 225.5,70.8333 225.5,77.1667 225.5,83.5C 224.51,77.69 224.177,71.69 224.5,65.5C 221.5,65.5 218.5,65.5 215.5,65.5C 215.5,72.5 215.5,79.5 215.5,86.5C 218.833,86.5 222.167,86.5 225.5,86.5C 222.038,87.4816 218.371,87.815 214.5,87.5C 214.5,79.8333 214.5,72.1667 214.5,64.5C 218.167,64.5 221.833,64.5 225.5,64.5 Z"/></g>
<g><path style="opacity:0.339" fill="#f5f5f4" d="M 276.5,83.5 C 279.896,83.6304 283.23,84.1304 286.5,85C 289.573,88.1073 290.239,91.6073 288.5,95.5C 288.663,93.1432 288.497,90.8098 288,88.5C 287.617,87.944 287.117,87.6107 286.5,87.5C 283.375,86.5206 280.042,86.1872 276.5,86.5C 276.5,85.5 276.5,84.5 276.5,83.5 Z"/></g>
<g><path style="opacity:1" fill="#525659" d="M 263.5,65.5 C 266.962,64.5184 270.629,64.185 274.5,64.5C 274.5,72.5 274.5,80.5 274.5,88.5C 270.833,88.5 267.167,88.5 263.5,88.5C 263.5,87.8333 263.5,87.1667 263.5,86.5C 266.833,86.5 270.167,86.5 273.5,86.5C 273.5,79.5 273.5,72.5 273.5,65.5C 270.167,65.5 266.833,65.5 263.5,65.5 Z"/></g>
<g><path style="opacity:0.234" fill="#c9c7c8" d="M 275.5,87.5 C 279.167,87.5 282.833,87.5 286.5,87.5C 287.117,87.6107 287.617,87.944 288,88.5C 288.497,90.8098 288.663,93.1432 288.5,95.5C 288.5,99.8333 288.5,104.167 288.5,108.5C 288.5,109.5 288.5,110.5 288.5,111.5C 287.833,104.167 287.167,96.8333 286.5,89.5C 282.833,88.8333 279.167,88.1667 275.5,87.5 Z"/></g>
<g><path style="opacity:0.647" fill="#939393" d="M 202.5,88.5 C 206.371,88.185 210.038,88.5184 213.5,89.5C 213.167,89.5 212.833,89.5 212.5,89.5C 209.167,89.5 205.833,89.5 202.5,89.5C 202.5,96.8333 202.5,104.167 202.5,111.5C 205.962,112.482 209.629,112.815 213.5,112.5C 210.038,113.482 206.371,113.815 202.5,113.5C 202.5,121.5 202.5,129.5 202.5,137.5C 202.167,137.5 201.833,137.5 201.5,137.5C 201.5,136.833 201.5,136.167 201.5,135.5C 201.5,128.167 201.5,120.833 201.5,113.5C 197.833,113.5 194.167,113.5 190.5,113.5C 193.962,112.518 197.629,112.185 201.5,112.5C 201.5,106.5 201.5,100.5 201.5,94.5C 201.205,92.2646 201.539,90.2646 202.5,88.5 Z"/></g>
<g><path style="opacity:1" fill="#343434" d="M 212.5,90.5 C 212.5,97.1667 212.5,103.833 212.5,110.5C 209.5,110.5 206.5,110.5 203.5,110.5C 203.5,103.833 203.5,97.1667 203.5,90.5C 206.5,90.5 209.5,90.5 212.5,90.5 Z"/></g>
<g><path style="opacity:1" fill="#cae5f5" d="M 265.5,90.5 C 267.833,90.5 270.167,90.5 272.5,90.5C 272.24,97.557 272.573,104.557 273.5,111.5C 272.603,110.402 271.77,110.402 271,111.5C 270.788,113.78 269.955,115.78 268.5,117.5C 269.795,119.328 270.795,121.328 271.5,123.5C 272.167,122.833 272.833,122.167 273.5,121.5C 274.474,123.743 274.808,126.076 274.5,128.5C 276.833,128.5 279.167,128.5 281.5,128.5C 280.655,134.826 280.155,141.16 280,147.5C 280.333,147.833 280.667,148.167 281,148.5C 282.742,146.027 284.575,146.027 286.5,148.5C 288.147,147.722 289.48,146.556 290.5,145C 290.384,143.732 290.051,142.398 289.5,141C 291.833,140.667 294.167,140.333 296.5,140C 293.305,139.819 290.305,139.319 287.5,138.5C 290.833,138.5 294.167,138.5 297.5,138.5C 297.334,146.507 297.5,154.507 298,162.5C 301.73,163.46 305.563,163.793 309.5,163.5C 309.5,167.833 309.5,172.167 309.5,176.5C 308.849,175.909 308.182,175.243 307.5,174.5C 306.098,177.537 304.765,180.537 303.5,183.5C 306.797,183.329 307.131,183.995 304.5,185.5C 304.833,186.167 305.167,186.833 305.5,187.5C 307.862,188.271 310.196,189.105 312.5,190C 313.527,194.849 316.527,197.349 321.5,197.5C 321.5,194.167 321.5,190.833 321.5,187.5C 322.493,195.65 322.826,203.983 322.5,212.5C 326.167,212.5 329.833,212.5 333.5,212.5C 333.169,219.863 333.503,227.197 334.5,234.5C 335.183,234.863 335.85,235.196 336.5,235.5C 336.5,235.833 336.5,236.167 336.5,236.5C 335.278,238.286 334.611,240.286 334.5,242.5C 335.817,257.84 335.817,273.174 334.5,288.5C 335.187,290.177 335.854,291.844 336.5,293.5C 335.89,294.391 335.557,295.391 335.5,296.5C 333.598,299.337 332.931,302.671 333.5,306.5C 330.167,306.5 326.833,306.5 323.5,306.5C 323.237,310.6 323.57,314.6 324.5,318.5C 324.167,318.5 323.833,318.5 323.5,318.5C 319.816,319.653 316.149,319.82 312.5,319C 311.54,322.73 311.207,326.563 311.5,330.5C 310.178,330.67 309.011,330.337 308,329.5C 300.855,330.909 293.688,332.243 286.5,333.5C 285.25,333.577 284.417,334.244 284,335.5C 282.701,329.04 281.201,328.54 279.5,334C 274.845,334.499 270.179,334.666 265.5,334.5C 265.67,335.822 265.337,336.989 264.5,338C 246.432,337.975 228.599,339.808 211,343.5C 208.152,343.202 205.319,342.869 202.5,342.5C 201.789,338.261 203.456,335.594 207.5,334.5C 205.518,333.784 203.851,332.617 202.5,331C 194.988,330.178 187.655,330.345 180.5,331.5C 179.167,331.5 177.833,331.5 176.5,331.5C 176.5,331.167 176.5,330.833 176.5,330.5C 177.468,328.393 177.802,326.059 177.5,323.5C 178.332,295.67 178.832,267.67 179,239.5C 181.407,239.594 183.907,239.427 186.5,239C 187.423,241.041 187.756,243.208 187.5,245.5C 189.342,245.723 191.175,246.057 193,246.5C 194.326,246.245 195.326,245.578 196,244.5C 196.333,239.167 196.667,233.833 197,228.5C 197.5,228 198,227.5 198.5,227C 198.274,221.506 196.607,216.506 193.5,212C 196.31,211.218 198.977,210.384 201.5,209.5C 202.167,203.321 202.833,196.988 203.5,190.5C 204.213,188.565 205.213,188.232 206.5,189.5C 205.065,190.985 205.232,192.318 207,193.5C 210,193.167 213,192.833 216,192.5C 220.875,187.144 221.708,181.144 218.5,174.5C 218.716,169.389 221.383,167.056 226.5,167.5C 226.128,164.978 226.961,162.978 229,161.5C 229.573,157.314 229.406,153.147 228.5,149C 228.762,146.453 229.262,143.953 230,141.5C 230.912,144.239 232.412,146.572 234.5,148.5C 236.217,147.332 236.884,145.665 236.5,143.5C 238.144,143.714 239.644,143.38 241,142.5C 239.291,137.167 240.457,132.667 244.5,129C 248.089,128.793 251.589,128.293 255,127.5C 255.631,124.416 254.798,121.75 252.5,119.5C 253.833,117.5 253.833,115.5 252.5,113.5C 253.611,112.389 254.278,111.055 254.5,109.5C 253.233,107.572 252.566,105.739 252.5,104C 253.399,101.808 254.399,99.6416 255.5,97.5C 257.662,95.5575 259.995,94.8908 262.5,95.5C 263.32,93.6812 264.32,92.0145 265.5,90.5 Z"/></g>
<g><path style="opacity:0.875" fill="#414042" d="M 276.5,90.5 C 276.5,90.1667 276.5,89.8333 276.5,89.5C 279.833,89.5 283.167,89.5 286.5,89.5C 286.5,96.8333 286.5,104.167 286.5,111.5C 282.958,111.813 279.625,111.479 276.5,110.5C 279.167,110.5 281.833,110.5 284.5,110.5C 284.5,103.833 284.5,97.1667 284.5,90.5C 281.833,90.5 279.167,90.5 276.5,90.5 Z"/></g>
<g><path style="opacity:1" fill="#4e5a62" d="M 276.5,89.5 C 276.5,89.8333 276.5,90.1667 276.5,90.5C 276.5,97.1667 276.5,103.833 276.5,110.5C 279.625,111.479 282.958,111.813 286.5,111.5C 283.038,112.482 279.371,112.815 275.5,112.5C 275.5,112.167 275.5,111.833 275.5,111.5C 275.175,103.981 275.508,96.6476 276.5,89.5 Z"/></g>
<g><path style="opacity:1" fill="#5d5d5d" d="M 212.5,89.5 C 212.833,89.5 213.167,89.5 213.5,89.5C 213.5,97.1667 213.5,104.833 213.5,112.5C 209.629,112.815 205.962,112.482 202.5,111.5C 206.042,111.813 209.375,111.479 212.5,110.5C 212.5,103.833 212.5,97.1667 212.5,90.5C 212.5,90.1667 212.5,89.8333 212.5,89.5 Z"/></g>
<g><path style="opacity:1" fill="#333239" d="M 276.5,90.5 C 279.167,90.5 281.833,90.5 284.5,90.5C 284.5,97.1667 284.5,103.833 284.5,110.5C 281.833,110.5 279.167,110.5 276.5,110.5C 276.5,103.833 276.5,97.1667 276.5,90.5 Z"/></g>
<g><path style="opacity:0.499" fill="#898b8e" d="M 286.5,89.5 C 287.167,96.8333 287.833,104.167 288.5,111.5C 291.962,112.482 295.629,112.815 299.5,112.5C 299.5,113.167 299.5,113.833 299.5,114.5C 299.167,114.5 298.833,114.5 298.5,114.5C 295.038,113.518 291.371,113.185 287.5,113.5C 287.167,113.5 286.833,113.5 286.5,113.5C 282.629,113.815 278.962,113.482 275.5,112.5C 279.371,112.815 283.038,112.482 286.5,111.5C 286.5,104.167 286.5,96.8333 286.5,89.5 Z"/></g>
<g><path style="opacity:1" fill="#f3fcfd" d="M 256.5,88.5 C 255.081,89.4511 253.415,89.7845 251.5,89.5C 250.835,96.1426 250.335,102.809 250,109.5C 245.559,111.554 241.892,114.554 239,118.5C 238.5,124.825 238.334,131.158 238.5,137.5C 236.118,135.954 233.451,135.287 230.5,135.5C 232.378,134.792 234.045,133.626 235.5,132C 235,131.5 234.5,131 234,130.5C 234.004,123.286 233.171,116.286 231.5,109.5C 236.129,110.481 240.796,110.648 245.5,110C 246.061,103.474 246.894,96.9738 248,90.5C 250.481,88.6863 253.315,88.0196 256.5,88.5 Z"/></g>
<g><path style="opacity:0.188" fill="#e2e2e2" d="M 200.5,106.5 C 200.5,108.167 200.5,109.833 200.5,111.5C 197.167,111.5 193.833,111.5 190.5,111.5C 192.969,110.683 195.635,110.183 198.5,110C 199.085,108.698 199.751,107.531 200.5,106.5 Z"/></g>
<g><path style="opacity:1" fill="#464646" d="M 212.5,89.5 C 212.5,89.8333 212.5,90.1667 212.5,90.5C 209.5,90.5 206.5,90.5 203.5,90.5C 203.5,97.1667 203.5,103.833 203.5,110.5C 206.5,110.5 209.5,110.5 212.5,110.5C 209.375,111.479 206.042,111.813 202.5,111.5C 202.5,104.167 202.5,96.8333 202.5,89.5C 205.833,89.5 209.167,89.5 212.5,89.5 Z"/></g>
<g><path style="opacity:1" fill="#cae5f1" d="M 273.5,111.5 C 273.414,112.496 273.748,113.329 274.5,114C 277.817,114.498 281.15,114.665 284.5,114.5C 284.334,122.174 284.5,129.841 285,137.5C 285.671,138.252 286.504,138.586 287.5,138.5C 290.305,139.319 293.305,139.819 296.5,140C 294.167,140.333 291.833,140.667 289.5,141C 290.051,142.398 290.384,143.732 290.5,145C 289.48,146.556 288.147,147.722 286.5,148.5C 284.575,146.027 282.742,146.027 281,148.5C 280.667,148.167 280.333,147.833 280,147.5C 280.155,141.16 280.655,134.826 281.5,128.5C 279.167,128.5 276.833,128.5 274.5,128.5C 274.808,126.076 274.474,123.743 273.5,121.5C 272.833,122.167 272.167,122.833 271.5,123.5C 270.795,121.328 269.795,119.328 268.5,117.5C 269.955,115.78 270.788,113.78 271,111.5C 271.77,110.402 272.603,110.402 273.5,111.5 Z"/></g>
<g><path style="opacity:0.31" fill="#dedddf" d="M 288.5,108.5 C 291.249,109.351 294.083,110.018 297,110.5C 298.376,110.684 299.209,111.351 299.5,112.5C 295.629,112.815 291.962,112.482 288.5,111.5C 288.5,110.5 288.5,109.5 288.5,108.5 Z"/></g>
<g><path style="opacity:0.753" fill="#7c7c7c" d="M 190.5,113.5 C 190.5,113.833 190.5,114.167 190.5,114.5C 190.5,121.833 190.5,129.167 190.5,136.5C 194.042,136.813 197.375,136.479 200.5,135.5C 200.833,135.5 201.167,135.5 201.5,135.5C 201.5,136.167 201.5,136.833 201.5,137.5C 197.029,138.089 193.029,137.423 189.5,135.5C 189.175,127.981 189.508,120.648 190.5,113.5 Z"/></g>
<g><path style="opacity:1" fill="#323232" d="M 192.5,114.5 C 195.167,114.5 197.833,114.5 200.5,114.5C 200.5,121.167 200.5,127.833 200.5,134.5C 197.833,134.5 195.167,134.5 192.5,134.5C 192.5,127.833 192.5,121.167 192.5,114.5 Z"/></g>
<g><path style="opacity:1" fill="#656565" d="M 190.5,114.5 C 190.5,114.167 190.5,113.833 190.5,113.5C 194.167,113.5 197.833,113.5 201.5,113.5C 201.5,120.833 201.5,128.167 201.5,135.5C 201.167,135.5 200.833,135.5 200.5,135.5C 200.5,135.167 200.5,134.833 200.5,134.5C 200.5,127.833 200.5,121.167 200.5,114.5C 197.833,114.5 195.167,114.5 192.5,114.5C 191.833,114.5 191.167,114.5 190.5,114.5 Z"/></g>
<g><path style="opacity:1" fill="#5e6067" d="M 287.5,113.5 C 291.371,113.185 295.038,113.518 298.5,114.5C 295.167,114.5 291.833,114.5 288.5,114.5C 288.5,121.5 288.5,128.5 288.5,135.5C 287.508,128.352 287.175,121.019 287.5,113.5 Z"/></g>
<g><path style="opacity:0.335" fill="#cfcfcf" d="M 201.5,94.5 C 201.5,100.5 201.5,106.5 201.5,112.5C 197.629,112.185 193.962,112.518 190.5,113.5C 189.508,120.648 189.175,127.981 189.5,135.5C 185.6,136.43 181.6,136.763 177.5,136.5C 180.149,134.891 183.149,134.057 186.5,134C 187.167,133.333 187.833,132.667 188.5,132C 187.359,126.25 187.193,120.416 188,114.5C 188.377,113.058 189.21,112.058 190.5,111.5C 193.833,111.5 197.167,111.5 200.5,111.5C 200.5,109.833 200.5,108.167 200.5,106.5C 200.5,102.833 200.5,99.1667 200.5,95.5C 200.5,94.8333 200.833,94.5 201.5,94.5 Z"/></g>
<g><path style="opacity:1" fill="#444444" d="M 190.5,114.5 C 191.167,114.5 191.833,114.5 192.5,114.5C 192.5,121.167 192.5,127.833 192.5,134.5C 195.167,134.5 197.833,134.5 200.5,134.5C 200.5,134.833 200.5,135.167 200.5,135.5C 197.375,136.479 194.042,136.813 190.5,136.5C 190.5,129.167 190.5,121.833 190.5,114.5 Z"/></g>
<g><path style="opacity:0.867" fill="#4a4d4e" d="M 298.5,116.5 C 298.5,123.167 298.5,129.833 298.5,136.5C 295.167,136.5 291.833,136.5 288.5,136.5C 288.5,136.167 288.5,135.833 288.5,135.5C 291.5,135.5 294.5,135.5 297.5,135.5C 297.177,128.978 297.51,122.645 298.5,116.5 Z"/></g>
<g><path style="opacity:1" fill="#c1d0da" d="M 262.5,88.5 C 262.833,88.5 263.167,88.5 263.5,88.5C 266.962,89.4816 270.629,89.815 274.5,89.5C 274.175,97.0191 274.508,104.352 275.5,111.5C 275.5,111.833 275.5,112.167 275.5,112.5C 278.962,113.482 282.629,113.815 286.5,113.5C 286.198,121.918 286.531,130.252 287.5,138.5C 286.504,138.586 285.671,138.252 285,137.5C 284.5,129.841 284.334,122.174 284.5,114.5C 281.15,114.665 277.817,114.498 274.5,114C 273.748,113.329 273.414,112.496 273.5,111.5C 272.573,104.557 272.24,97.557 272.5,90.5C 270.167,90.5 267.833,90.5 265.5,90.5C 263.821,90.7148 262.821,90.0481 262.5,88.5 Z"/></g>
<g><path style="opacity:1" fill="#cfe5f0" d="M 261.5,84.5 C 261.833,84.5 262.167,84.5 262.5,84.5C 262.5,85.8333 262.5,87.1667 262.5,88.5C 262.821,90.0481 263.821,90.7148 265.5,90.5C 264.32,92.0145 263.32,93.6812 262.5,95.5C 259.995,94.8908 257.662,95.5575 255.5,97.5C 254.399,99.6416 253.399,101.808 252.5,104C 252.566,105.739 253.233,107.572 254.5,109.5C 254.278,111.055 253.611,112.389 252.5,113.5C 253.833,115.5 253.833,117.5 252.5,119.5C 254.798,121.75 255.631,124.416 255,127.5C 251.589,128.293 248.089,128.793 244.5,129C 240.457,132.667 239.291,137.167 241,142.5C 239.644,143.38 238.144,143.714 236.5,143.5C 236.884,145.665 236.217,147.332 234.5,148.5C 232.412,146.572 230.912,144.239 230,141.5C 229.262,143.953 228.762,146.453 228.5,149C 229.406,153.147 229.573,157.314 229,161.5C 226.961,162.978 226.128,164.978 226.5,167.5C 221.383,167.056 218.716,169.389 218.5,174.5C 221.708,181.144 220.875,187.144 216,192.5C 213,192.833 210,193.167 207,193.5C 205.232,192.318 205.065,190.985 206.5,189.5C 209.413,188.759 212.413,188.259 215.5,188C 216,187.5 216.5,187 217,186.5C 216.248,180.886 215.914,175.22 216,169.5C 218.643,168.024 220.81,166.024 222.5,163.5C 223.736,162.754 225.07,162.421 226.5,162.5C 227.027,154.833 227.693,147.166 228.5,139.5C 231.971,138.903 235.305,138.236 238.5,137.5C 238.334,131.158 238.5,124.825 239,118.5C 241.892,114.554 245.559,111.554 250,109.5C 250.335,102.809 250.835,96.1426 251.5,89.5C 253.415,89.7845 255.081,89.4511 256.5,88.5C 259.95,89.2436 261.616,87.9103 261.5,84.5 Z"/></g>
<g><path style="opacity:1" fill="#313337" d="M 298.5,114.5 C 298.5,115.167 298.5,115.833 298.5,116.5C 297.51,122.645 297.177,128.978 297.5,135.5C 294.5,135.5 291.5,135.5 288.5,135.5C 288.5,128.5 288.5,121.5 288.5,114.5C 291.833,114.5 295.167,114.5 298.5,114.5 Z"/></g>
<g><path style="opacity:1" fill="#e9e9e9" d="M 216.5,89.5 C 215.698,97.4218 215.198,105.422 215,113.5C 211.606,114.456 208.106,114.789 204.5,114.5C 204.666,121.841 204.5,129.174 204,136.5C 203.617,137.056 203.117,137.389 202.5,137.5C 202.5,129.5 202.5,121.5 202.5,113.5C 206.371,113.815 210.038,113.482 213.5,112.5C 213.847,104.612 214.847,96.9458 216.5,89.5 Z"/></g>
<g><path style="opacity:0.69" fill="#747879" d="M 298.5,114.5 C 298.833,114.5 299.167,114.5 299.5,114.5C 299.5,122.167 299.5,129.833 299.5,137.5C 295.629,137.815 291.962,137.482 288.5,136.5C 291.833,136.5 295.167,136.5 298.5,136.5C 298.5,129.833 298.5,123.167 298.5,116.5C 298.5,115.833 298.5,115.167 298.5,114.5 Z"/></g>
<g><path style="opacity:0.422" fill="#f2f5f4" d="M 300.5,116.5 C 301.488,121.64 301.821,126.974 301.5,132.5C 304.91,132.457 308.243,132.957 311.5,134C 312.252,134.671 312.586,135.504 312.5,136.5C 308.566,135.64 304.566,135.307 300.5,135.5C 300.5,129.167 300.5,122.833 300.5,116.5 Z"/></g>
<g><path style="opacity:0.561" fill="#b7b7b7" d="M 189.5,135.5 C 193.029,137.423 197.029,138.089 201.5,137.5C 198.038,138.482 194.371,138.815 190.5,138.5C 190.825,146.352 190.492,154.018 189.5,161.5C 189.825,153.648 189.492,145.982 188.5,138.5C 185.038,137.518 181.371,137.185 177.5,137.5C 177.5,141.833 177.5,146.167 177.5,150.5C 177.167,150.5 176.833,150.5 176.5,150.5C 176.74,147.421 176.407,144.421 175.5,141.5C 176.028,139.664 176.694,137.997 177.5,136.5C 181.6,136.763 185.6,136.43 189.5,135.5 Z"/></g>
<g><path style="opacity:1" fill="#9ca8b3" d="M 286.5,113.5 C 286.833,113.5 287.167,113.5 287.5,113.5C 287.175,121.019 287.508,128.352 288.5,135.5C 288.5,135.833 288.5,136.167 288.5,136.5C 291.962,137.482 295.629,137.815 299.5,137.5C 299.5,145.167 299.5,152.833 299.5,160.5C 298.833,153.167 298.167,145.833 297.5,138.5C 294.167,138.5 290.833,138.5 287.5,138.5C 286.531,130.252 286.198,121.918 286.5,113.5 Z"/></g>
<g><path style="opacity:0.158" fill="#e9eaea" d="M 312.5,136.5 C 313.328,142.987 313.828,149.654 314,156.5C 317.428,157.396 320.928,158.062 324.5,158.5C 325.227,165.8 325.727,173.133 326,180.5C 329.373,181.671 332.54,183.005 335.5,184.5C 331.833,184.5 328.167,184.5 324.5,184.5C 324.825,176.981 324.492,169.648 323.5,162.5C 323.5,162.167 323.5,161.833 323.5,161.5C 320.038,160.518 316.371,160.185 312.5,160.5C 312.5,152.5 312.5,144.5 312.5,136.5 Z"/></g>
<g><path style="opacity:0.444" fill="#b4b6b6" d="M 299.5,112.5 C 300.434,113.568 300.768,114.901 300.5,116.5C 300.5,122.833 300.5,129.167 300.5,135.5C 304.566,135.307 308.566,135.64 312.5,136.5C 312.5,144.5 312.5,152.5 312.5,160.5C 316.371,160.185 320.038,160.518 323.5,161.5C 319.5,161.5 315.5,161.5 311.5,161.5C 311.5,153.5 311.5,145.5 311.5,137.5C 307.5,137.5 303.5,137.5 299.5,137.5C 299.5,129.833 299.5,122.167 299.5,114.5C 299.5,113.833 299.5,113.167 299.5,112.5 Z"/></g>
<g><path style="opacity:0.729" fill="#666d71" d="M 299.5,137.5 C 303.5,137.5 307.5,137.5 311.5,137.5C 311.5,145.5 311.5,153.5 311.5,161.5C 307.629,161.815 303.962,161.482 300.5,160.5C 300.167,160.5 299.833,160.5 299.5,160.5C 299.5,152.833 299.5,145.167 299.5,137.5 Z"/></g>
<g><path style="opacity:1" fill="#44484b" d="M 309.5,138.5 C 310.492,145.648 310.825,152.981 310.5,160.5C 307.167,160.5 303.833,160.5 300.5,160.5C 300.5,160.167 300.5,159.833 300.5,159.5C 303.5,159.5 306.5,159.5 309.5,159.5C 309.5,152.5 309.5,145.5 309.5,138.5 Z"/></g>
<g><path style="opacity:1" fill="#303436" d="M 309.5,138.5 C 309.5,145.5 309.5,152.5 309.5,159.5C 306.5,159.5 303.5,159.5 300.5,159.5C 300.5,152.5 300.5,145.5 300.5,138.5C 303.5,138.5 306.5,138.5 309.5,138.5 Z"/></g>
<g><path style="opacity:1" fill="#757575" d="M 188.5,138.5 C 189.492,145.982 189.825,153.648 189.5,161.5C 189.167,161.5 188.833,161.5 188.5,161.5C 184.833,161.5 181.167,161.5 177.5,161.5C 177.5,157.833 177.5,154.167 177.5,150.5C 177.5,146.167 177.5,141.833 177.5,137.5C 181.371,137.185 185.038,137.518 188.5,138.5 Z"/></g>
<g><path style="opacity:1" fill="#474747" d="M 180.5,138.5 C 179.538,145.412 179.205,152.412 179.5,159.5C 182.5,159.5 185.5,159.5 188.5,159.5C 185.375,160.479 182.042,160.813 178.5,160.5C 177.87,152.757 178.537,145.424 180.5,138.5 Z"/></g>
<g><path style="opacity:1" fill="#333333" d="M 180.5,138.5 C 183.167,138.5 185.833,138.5 188.5,138.5C 188.5,145.5 188.5,152.5 188.5,159.5C 185.5,159.5 182.5,159.5 179.5,159.5C 179.205,152.412 179.538,145.412 180.5,138.5 Z"/></g>
<g><path style="opacity:1" fill="#999999" d="M 176.5,150.5 C 176.833,150.5 177.167,150.5 177.5,150.5C 177.5,154.167 177.5,157.833 177.5,161.5C 181.167,161.5 184.833,161.5 188.5,161.5C 185.038,162.482 181.371,162.815 177.5,162.5C 177.825,170.019 177.492,177.352 176.5,184.5C 176.5,184.167 176.5,183.833 176.5,183.5C 176.5,176.833 176.5,170.167 176.5,163.5C 173.038,162.518 169.371,162.185 165.5,162.5C 168.962,161.518 172.629,161.185 176.5,161.5C 176.5,159.5 176.5,157.5 176.5,155.5C 176.5,153.833 176.5,152.167 176.5,150.5 Z"/></g>
<g><path style="opacity:1" fill="#edf8fa" d="M 225.5,159.5 C 222.015,161.62 218.182,162.954 214,163.5C 213.5,170.826 213.334,178.159 213.5,185.5C 210.603,185.681 207.77,185.348 205,184.5C 203.739,184.759 202.739,185.426 202,186.5C 201.5,194.159 201.334,201.826 201.5,209.5C 197.5,209.5 193.5,209.5 189.5,209.5C 189.5,218.167 189.5,226.833 189.5,235.5C 185.5,235.5 181.5,235.5 177.5,235.5C 177.5,264.833 177.5,294.167 177.5,323.5C 177.802,326.059 177.468,328.393 176.5,330.5C 176.167,298.16 176.5,265.826 177.5,233.5C 180.421,232.593 183.421,232.26 186.5,232.5C 186.739,230.533 186.406,228.699 185.5,227C 186.448,226.517 187.448,226.351 188.5,226.5C 188.5,220.5 188.5,214.5 188.5,208.5C 192.5,208.5 196.5,208.5 200.5,208.5C 200.334,200.826 200.5,193.159 201,185.5C 202.333,184.167 203.667,182.833 205,181.5C 207.135,183.278 209.635,183.945 212.5,183.5C 212.813,180.753 212.48,178.086 211.5,175.5C 209.13,177.098 207.464,176.598 206.5,174C 206.938,172.08 207.605,170.246 208.5,168.5C 209.72,169.711 210.887,169.711 212,168.5C 212.154,164.902 213.154,161.569 215,158.5C 218.394,159.456 221.894,159.789 225.5,159.5 Z"/></g>
<g><path style="opacity:1" fill="#cecece" d="M 188.5,161.5 C 188.833,161.5 189.167,161.5 189.5,161.5C 186.316,163.414 182.649,164.08 178.5,163.5C 178.666,170.841 178.5,178.174 178,185.5C 177.617,186.056 177.117,186.389 176.5,186.5C 176.5,186.167 176.5,185.833 176.5,185.5C 176.5,185.167 176.5,184.833 176.5,184.5C 177.492,177.352 177.825,170.019 177.5,162.5C 181.371,162.815 185.038,162.482 188.5,161.5 Z"/></g>
<g><path style="opacity:1" fill="#d9e9f0" d="M 230.5,135.5 C 233.451,135.287 236.118,135.954 238.5,137.5C 235.305,138.236 231.971,138.903 228.5,139.5C 227.693,147.166 227.027,154.833 226.5,162.5C 225.07,162.421 223.736,162.754 222.5,163.5C 220.81,166.024 218.643,168.024 216,169.5C 215.914,175.22 216.248,180.886 217,186.5C 216.5,187 216,187.5 215.5,188C 212.413,188.259 209.413,188.759 206.5,189.5C 205.213,188.232 204.213,188.565 203.5,190.5C 202.833,196.988 202.167,203.321 201.5,209.5C 201.334,201.826 201.5,194.159 202,186.5C 202.739,185.426 203.739,184.759 205,184.5C 207.77,185.348 210.603,185.681 213.5,185.5C 213.334,178.159 213.5,170.826 214,163.5C 218.182,162.954 222.015,161.62 225.5,159.5C 225.334,151.826 225.5,144.159 226,136.5C 227.356,135.62 228.856,135.286 230.5,135.5 Z"/></g>
<g><path style="opacity:1" fill="#353535" d="M 176.5,163.5 C 176.5,170.167 176.5,176.833 176.5,183.5C 173.167,183.5 169.833,183.5 166.5,183.5C 166.5,176.833 166.5,170.167 166.5,163.5C 169.833,163.5 173.167,163.5 176.5,163.5 Z"/></g>
<g><path style="opacity:0.8" fill="#545454" d="M 165.5,162.5 C 169.371,162.185 173.038,162.518 176.5,163.5C 173.167,163.5 169.833,163.5 166.5,163.5C 166.5,170.167 166.5,176.833 166.5,183.5C 169.833,183.5 173.167,183.5 176.5,183.5C 176.5,183.833 176.5,184.167 176.5,184.5C 176.5,184.833 176.5,185.167 176.5,185.5C 172.833,185.5 169.167,185.5 165.5,185.5C 165.5,177.833 165.5,170.167 165.5,162.5 Z"/></g>
<g><path style="opacity:1" fill="#798286" d="M 311.5,161.5 C 315.5,161.5 319.5,161.5 323.5,161.5C 323.5,161.833 323.5,162.167 323.5,162.5C 319.629,162.185 315.962,162.518 312.5,163.5C 312.5,170.5 312.5,177.5 312.5,184.5C 312.167,184.5 311.833,184.5 311.5,184.5C 311.5,176.833 311.5,169.167 311.5,161.5 Z"/></g>
<g><path style="opacity:1" fill="#a6b4bc" d="M 299.5,160.5 C 299.833,160.5 300.167,160.5 300.5,160.5C 303.962,161.482 307.629,161.815 311.5,161.5C 311.5,169.167 311.5,176.833 311.5,184.5C 310.508,177.352 310.175,170.019 310.5,162.5C 306.351,163.08 302.684,162.414 299.5,160.5 Z"/></g>
<g><path style="opacity:1" fill="#313435" d="M 312.5,163.5 C 315.833,163.5 319.167,163.5 322.5,163.5C 322.177,169.69 322.51,175.69 323.5,181.5C 323.5,182.5 323.5,183.5 323.5,184.5C 319.833,184.5 316.167,184.5 312.5,184.5C 312.5,177.5 312.5,170.5 312.5,163.5 Z"/></g>
<g><path style="opacity:0.78" fill="#535351" d="M 312.5,163.5 C 315.962,162.518 319.629,162.185 323.5,162.5C 323.5,168.833 323.5,175.167 323.5,181.5C 322.51,175.69 322.177,169.69 322.5,163.5C 319.167,163.5 315.833,163.5 312.5,163.5 Z"/></g>
<g><path style="opacity:0.136" fill="#d3d3d3" d="M 176.5,155.5 C 176.5,157.5 176.5,159.5 176.5,161.5C 172.629,161.185 168.962,161.518 165.5,162.5C 164.508,169.982 164.175,177.648 164.5,185.5C 160.629,185.185 156.962,185.518 153.5,186.5C 153.167,186.5 152.833,186.5 152.5,186.5C 152.577,185.25 153.244,184.417 154.5,184C 157.426,183.782 160.26,183.282 163,182.5C 163.333,175.5 163.667,168.5 164,161.5C 167.583,159.71 171.416,159.043 175.5,159.5C 175.232,157.901 175.566,156.568 176.5,155.5 Z"/></g>
<g><path style="opacity:0.903" fill="#979797" d="M 165.5,162.5 C 165.5,170.167 165.5,177.833 165.5,185.5C 169.167,185.5 172.833,185.5 176.5,185.5C 176.5,185.833 176.5,186.167 176.5,186.5C 172.833,186.5 169.167,186.5 165.5,186.5C 165.825,194.019 165.492,201.352 164.5,208.5C 164.5,201.167 164.5,193.833 164.5,186.5C 160.833,186.5 157.167,186.5 153.5,186.5C 156.962,185.518 160.629,185.185 164.5,185.5C 164.175,177.648 164.508,169.982 165.5,162.5 Z"/></g>
<g><path style="opacity:1" fill="#6d7c7d" d="M 312.5,184.5 C 316.167,184.5 319.833,184.5 323.5,184.5C 322.833,185.167 322.167,185.833 321.5,186.5C 317.988,187.055 314.988,186.388 312.5,184.5 Z"/></g>
<g><path style="opacity:1" fill="#cbe6ef" d="M 309.5,176.5 C 309.071,179.786 309.071,182.953 309.5,186C 313.363,187.354 317.363,187.854 321.5,187.5C 321.5,190.833 321.5,194.167 321.5,197.5C 316.527,197.349 313.527,194.849 312.5,190C 310.196,189.105 307.862,188.271 305.5,187.5C 305.167,186.833 304.833,186.167 304.5,185.5C 307.131,183.995 306.797,183.329 303.5,183.5C 304.765,180.537 306.098,177.537 307.5,174.5C 308.182,175.243 308.849,175.909 309.5,176.5 Z"/></g>
<g><path style="opacity:0.249" fill="#cecfd0" d="M 324.5,184.5 C 328.167,184.5 331.833,184.5 335.5,184.5C 336.117,184.611 336.617,184.944 337,185.5C 337.287,187.891 337.787,190.224 338.5,192.5C 337.561,196.765 337.228,201.098 337.5,205.5C 337.5,206.5 337.5,207.5 337.5,208.5C 336.833,201.5 336.167,194.5 335.5,187.5C 335.5,187.167 335.5,186.833 335.5,186.5C 331.833,185.833 328.167,185.167 324.5,184.5 Z"/></g>
<g><path style="opacity:0.173" fill="#d1d1d1" d="M 152.5,186.5 C 152.666,193.841 152.5,201.174 152,208.5C 148.333,209.167 144.667,209.833 141,210.5C 140.829,218.344 140.329,226.011 139.5,233.5C 139.5,232.5 139.5,231.5 139.5,230.5C 139.334,223.492 139.5,216.492 140,209.5C 143.528,208.016 147.194,207.016 151,206.5C 151.172,199.654 151.672,192.987 152.5,186.5 Z"/></g>
<g><path style="opacity:0.976" fill="#575757" d="M 153.5,186.5 C 157.167,186.5 160.833,186.5 164.5,186.5C 164.5,193.833 164.5,201.167 164.5,208.5C 164.5,208.833 164.5,209.167 164.5,209.5C 160.833,209.5 157.167,209.5 153.5,209.5C 153.5,201.833 153.5,194.167 153.5,186.5 Z"/></g>
<g><path style="opacity:1" fill="#333333" d="M 154.5,187.5 C 157.5,187.5 160.5,187.5 163.5,187.5C 163.5,194.5 163.5,201.5 163.5,208.5C 160.5,208.5 157.5,208.5 154.5,208.5C 154.5,201.5 154.5,194.5 154.5,187.5 Z"/></g>
<g><path style="opacity:1" fill="#4e5257" d="M 335.5,186.5 C 335.5,186.833 335.5,187.167 335.5,187.5C 335.5,193.833 335.5,200.167 335.5,206.5C 334.51,200.355 334.177,194.022 334.5,187.5C 331.5,187.5 328.5,187.5 325.5,187.5C 325.5,194.5 325.5,201.5 325.5,208.5C 328.833,208.5 332.167,208.5 335.5,208.5C 332.038,209.482 328.371,209.815 324.5,209.5C 324.5,201.833 324.5,194.167 324.5,186.5C 328.167,186.5 331.833,186.5 335.5,186.5 Z"/></g>
<g><path style="opacity:0.263" fill="#f5f5f8" d="M 337.5,205.5 C 341.041,206.08 344.374,207.08 347.5,208.5C 344.167,208.5 340.833,208.5 337.5,208.5C 337.5,207.5 337.5,206.5 337.5,205.5 Z"/></g>
<g><path style="opacity:1" fill="#90979c" d="M 323.5,162.5 C 324.492,169.648 324.825,176.981 324.5,184.5C 328.167,185.167 331.833,185.833 335.5,186.5C 331.833,186.5 328.167,186.5 324.5,186.5C 324.5,194.167 324.5,201.833 324.5,209.5C 328.371,209.815 332.038,209.482 335.5,208.5C 335.5,207.833 335.5,207.167 335.5,206.5C 335.5,200.167 335.5,193.833 335.5,187.5C 336.167,194.5 336.833,201.5 337.5,208.5C 340.641,209.321 343.975,209.821 347.5,210C 348.252,210.671 348.586,211.504 348.5,212.5C 348.167,212.5 347.833,212.5 347.5,212.5C 347.5,211.833 347.167,211.5 346.5,211.5C 343.375,210.521 340.042,210.187 336.5,210.5C 336.5,218.167 336.5,225.833 336.5,233.5C 335.508,226.352 335.175,219.019 335.5,211.5C 331.5,211.5 327.5,211.5 323.5,211.5C 324.135,202.766 323.468,194.433 321.5,186.5C 322.167,185.833 322.833,185.167 323.5,184.5C 323.5,183.5 323.5,182.5 323.5,181.5C 323.5,175.167 323.5,168.833 323.5,162.5 Z"/></g>
<g><path style="opacity:1" fill="#363335" d="M 335.5,206.5 C 335.5,207.167 335.5,207.833 335.5,208.5C 332.167,208.5 328.833,208.5 325.5,208.5C 325.5,201.5 325.5,194.5 325.5,187.5C 328.5,187.5 331.5,187.5 334.5,187.5C 334.177,194.022 334.51,200.355 335.5,206.5 Z"/></g>
<g><path style="opacity:0.991" fill="#323232" d="M 151.5,212.5 C 151.5,219.167 151.5,225.833 151.5,232.5C 148.5,232.5 145.5,232.5 142.5,232.5C 142.5,225.833 142.5,219.167 142.5,212.5C 145.5,212.5 148.5,212.5 151.5,212.5 Z"/></g>
<g><path style="opacity:0.946" fill="#696969" d="M 142.5,211.5 C 145.625,210.521 148.958,210.187 152.5,210.5C 152.5,218.167 152.5,225.833 152.5,233.5C 152.167,233.5 151.833,233.5 151.5,233.5C 151.5,233.167 151.5,232.833 151.5,232.5C 151.5,225.833 151.5,219.167 151.5,212.5C 148.713,211.523 145.713,211.19 142.5,211.5 Z"/></g>
<g><path style="opacity:1" fill="#d0e5f1" d="M 201.5,209.5 C 198.977,210.384 196.31,211.218 193.5,212C 196.607,216.506 198.274,221.506 198.5,227C 198,227.5 197.5,228 197,228.5C 196.667,233.833 196.333,239.167 196,244.5C 195.326,245.578 194.326,246.245 193,246.5C 191.175,246.057 189.342,245.723 187.5,245.5C 187.756,243.208 187.423,241.041 186.5,239C 183.907,239.427 181.407,239.594 179,239.5C 178.832,267.67 178.332,295.67 177.5,323.5C 177.5,294.167 177.5,264.833 177.5,235.5C 181.5,235.5 185.5,235.5 189.5,235.5C 189.5,226.833 189.5,218.167 189.5,209.5C 193.5,209.5 197.5,209.5 201.5,209.5 Z"/></g>
<g><path style="opacity:1" fill="#2e2e34" d="M 337.5,212.5 C 340.167,212.5 342.833,212.5 345.5,212.5C 345.207,218.893 345.54,225.227 346.5,231.5C 343.572,232.484 340.572,232.817 337.5,232.5C 337.5,225.833 337.5,219.167 337.5,212.5 Z"/></g>
<g><path style="opacity:0.76" fill="#4c4c4c" d="M 142.5,211.5 C 145.713,211.19 148.713,211.523 151.5,212.5C 148.5,212.5 145.5,212.5 142.5,212.5C 142.5,219.167 142.5,225.833 142.5,232.5C 145.5,232.5 148.5,232.5 151.5,232.5C 151.5,232.833 151.5,233.167 151.5,233.5C 148.167,233.5 144.833,233.5 141.5,233.5C 141.175,225.981 141.508,218.648 142.5,211.5 Z"/></g>
<g><path style="opacity:1" fill="#a7a8a7" d="M 152.5,210.5 C 156.5,210.5 160.5,210.5 164.5,210.5C 161.038,211.482 157.371,211.815 153.5,211.5C 153.825,219.019 153.492,226.352 152.5,233.5C 152.5,225.833 152.5,218.167 152.5,210.5 Z"/></g>
<g><path style="opacity:1" fill="#dbdbdb" d="M 176.5,186.5 C 173.186,186.943 170.019,187.943 167,189.5C 166.732,197.2 166.232,204.867 165.5,212.5C 162.167,212.5 158.833,212.5 155.5,212.5C 155.831,219.863 155.497,227.197 154.5,234.5C 153.817,234.863 153.15,235.196 152.5,235.5C 152.5,234.833 152.5,234.167 152.5,233.5C 153.492,226.352 153.825,219.019 153.5,211.5C 157.371,211.815 161.038,211.482 164.5,210.5C 164.5,210.167 164.5,209.833 164.5,209.5C 164.5,209.167 164.5,208.833 164.5,208.5C 165.492,201.352 165.825,194.019 165.5,186.5C 169.167,186.5 172.833,186.5 176.5,186.5 Z"/></g>
<g><path style="opacity:1" fill="#5d636a" d="M 346.5,211.5 C 343.287,211.19 340.287,211.523 337.5,212.5C 337.5,219.167 337.5,225.833 337.5,232.5C 337.5,232.833 337.5,233.167 337.5,233.5C 337.167,233.5 336.833,233.5 336.5,233.5C 336.5,225.833 336.5,218.167 336.5,210.5C 340.042,210.187 343.375,210.521 346.5,211.5 Z"/></g>
<g><path style="opacity:0.32" fill="#c9c9ca" d="M 337.5,208.5 C 340.833,208.5 344.167,208.5 347.5,208.5C 348.117,208.611 348.617,208.944 349,209.5C 350.729,215.793 350.896,222.126 349.5,228.5C 349.5,229.833 349.5,231.167 349.5,232.5C 353.167,232.5 356.833,232.5 360.5,232.5C 360.5,232.833 360.5,233.167 360.5,233.5C 360.5,234.167 360.5,234.833 360.5,235.5C 360.167,235.5 359.833,235.5 359.5,235.5C 356.103,234.802 352.603,234.135 349,233.5C 348.5,226.508 348.334,219.508 348.5,212.5C 348.586,211.504 348.252,210.671 347.5,210C 343.975,209.821 340.641,209.321 337.5,208.5 Z"/></g>
<g><path style="opacity:1" fill="#bdced8" d="M 297.5,138.5 C 298.167,145.833 298.833,153.167 299.5,160.5C 302.684,162.414 306.351,163.08 310.5,162.5C 310.175,170.019 310.508,177.352 311.5,184.5C 311.833,184.5 312.167,184.5 312.5,184.5C 314.988,186.388 317.988,187.055 321.5,186.5C 323.468,194.433 324.135,202.766 323.5,211.5C 327.5,211.5 331.5,211.5 335.5,211.5C 335.175,219.019 335.508,226.352 336.5,233.5C 336.5,234.167 336.5,234.833 336.5,235.5C 335.85,235.196 335.183,234.863 334.5,234.5C 333.503,227.197 333.169,219.863 333.5,212.5C 329.833,212.5 326.167,212.5 322.5,212.5C 322.826,203.983 322.493,195.65 321.5,187.5C 317.363,187.854 313.363,187.354 309.5,186C 309.071,182.953 309.071,179.786 309.5,176.5C 309.5,172.167 309.5,167.833 309.5,163.5C 305.563,163.793 301.73,163.46 298,162.5C 297.5,154.507 297.334,146.507 297.5,138.5 Z"/></g>
<g><path style="opacity:0.579" fill="#7a7e83" d="M 347.5,212.5 C 347.833,212.5 348.167,212.5 348.5,212.5C 348.334,219.508 348.5,226.508 349,233.5C 352.603,234.135 356.103,234.802 359.5,235.5C 356.167,235.5 352.833,235.5 349.5,235.5C 348.833,235.5 348.5,235.833 348.5,236.5C 344.6,235.57 340.6,235.237 336.5,235.5C 336.5,234.833 336.5,234.167 336.5,233.5C 336.833,233.5 337.167,233.5 337.5,233.5C 340.833,233.5 344.167,233.5 347.5,233.5C 347.5,226.5 347.5,219.5 347.5,212.5 Z"/></g>
<g><path style="opacity:0.825" fill="#47484a" d="M 337.5,212.5 C 340.287,211.523 343.287,211.19 346.5,211.5C 347.167,211.5 347.5,211.833 347.5,212.5C 347.5,219.5 347.5,226.5 347.5,233.5C 344.167,233.5 340.833,233.5 337.5,233.5C 337.5,233.167 337.5,232.833 337.5,232.5C 340.572,232.817 343.572,232.484 346.5,231.5C 345.54,225.227 345.207,218.893 345.5,212.5C 342.833,212.5 340.167,212.5 337.5,212.5 Z"/></g>
<g><path style="opacity:0.356" fill="#f9f9fa" d="M 349.5,228.5 C 352.528,230.14 355.861,230.974 359.5,231C 360.056,231.383 360.389,231.883 360.5,232.5C 356.833,232.5 353.167,232.5 349.5,232.5C 349.5,231.167 349.5,229.833 349.5,228.5 Z"/></g>
<g><path style="opacity:0.812" fill="#949494" d="M 152.5,186.5 C 152.833,186.5 153.167,186.5 153.5,186.5C 153.5,194.167 153.5,201.833 153.5,209.5C 157.167,209.5 160.833,209.5 164.5,209.5C 164.5,209.833 164.5,210.167 164.5,210.5C 160.5,210.5 156.5,210.5 152.5,210.5C 148.958,210.187 145.625,210.521 142.5,211.5C 141.508,218.648 141.175,225.981 141.5,233.5C 144.833,233.5 148.167,233.5 151.5,233.5C 147.939,234.23 144.273,234.897 140.5,235.5C 140.167,235.5 139.833,235.5 139.5,235.5C 135.958,235.187 132.625,235.521 129.5,236.5C 128.503,255.993 128.17,275.66 128.5,295.5C 127.833,295.5 127.5,295.167 127.5,294.5C 127.333,274.831 127.5,255.164 128,235.5C 128.5,235 129,234.5 129.5,234C 132.817,233.502 136.15,233.335 139.5,233.5C 140.329,226.011 140.829,218.344 141,210.5C 144.667,209.833 148.333,209.167 152,208.5C 152.5,201.174 152.666,193.841 152.5,186.5 Z"/></g>
<g><path style="opacity:1" fill="#b9b9b9" d="M 151.5,233.5 C 151.833,233.5 152.167,233.5 152.5,233.5C 152.5,234.167 152.5,234.833 152.5,235.5C 149.375,236.479 146.042,236.813 142.5,236.5C 141.503,255.659 141.17,274.993 141.5,294.5C 145.167,294.5 148.833,294.5 152.5,294.5C 153.338,294.842 153.672,295.508 153.5,296.5C 153.167,296.5 152.833,296.5 152.5,296.5C 148.702,295.517 144.702,295.183 140.5,295.5C 140.5,275.5 140.5,255.5 140.5,235.5C 144.273,234.897 147.939,234.23 151.5,233.5 Z"/></g>
<g><path style="opacity:1" fill="#dfdfdf" d="M 142.5,236.5 C 142.5,255.5 142.5,274.5 142.5,293.5C 146.042,293.187 149.375,293.521 152.5,294.5C 148.833,294.5 145.167,294.5 141.5,294.5C 141.17,274.993 141.503,255.659 142.5,236.5 Z"/></g>
<g><path style="opacity:0.7" fill="#717171" d="M 139.5,235.5 C 139.833,235.5 140.167,235.5 140.5,235.5C 140.5,255.5 140.5,275.5 140.5,295.5C 136.5,295.5 132.5,295.5 128.5,295.5C 128.17,275.66 128.503,255.993 129.5,236.5C 129.5,255.833 129.5,275.167 129.5,294.5C 133.042,294.813 136.375,294.479 139.5,293.5C 139.5,274.5 139.5,255.5 139.5,236.5C 139.5,236.167 139.5,235.833 139.5,235.5 Z"/></g>
<g><path style="opacity:1" fill="#2f2f2f" d="M 131.5,236.5 C 134.167,236.5 136.833,236.5 139.5,236.5C 139.5,255.5 139.5,274.5 139.5,293.5C 136.833,293.5 134.167,293.5 131.5,293.5C 133.389,292.678 135.389,291.845 137.5,291C 138.672,289.132 138.505,287.298 137,285.5C 136.816,271.788 136.316,258.122 135.5,244.5C 138.154,242.428 137.82,240.761 134.5,239.5C 133.28,239.887 132.613,240.72 132.5,242C 132.853,251.236 133.186,260.569 133.5,270C 133.62,275.607 133.12,281.107 132,286.5C 131.5,269.837 131.333,253.17 131.5,236.5 Z"/></g>
<g><path style="opacity:1" fill="#4f4f4f" d="M 139.5,235.5 C 139.5,235.833 139.5,236.167 139.5,236.5C 136.833,236.5 134.167,236.5 131.5,236.5C 130.167,255.5 130.167,274.5 131.5,293.5C 134.167,293.5 136.833,293.5 139.5,293.5C 136.375,294.479 133.042,294.813 129.5,294.5C 129.5,275.167 129.5,255.833 129.5,236.5C 132.625,235.521 135.958,235.187 139.5,235.5 Z"/></g>
<g><path style="opacity:1" fill="#353435" d="M 131.5,236.5 C 131.333,253.17 131.5,269.837 132,286.5C 133.12,281.107 133.62,275.607 133.5,270C 133.186,260.569 132.853,251.236 132.5,242C 132.613,240.72 133.28,239.887 134.5,239.5C 137.82,240.761 138.154,242.428 135.5,244.5C 136.316,258.122 136.816,271.788 137,285.5C 138.505,287.298 138.672,289.132 137.5,291C 135.389,291.845 133.389,292.678 131.5,293.5C 130.167,274.5 130.167,255.5 131.5,236.5 Z"/></g>
<g><path style="opacity:0.144" fill="#ebebf0" d="M 360.5,233.5 C 361.117,233.611 361.617,233.944 362,234.5C 362.818,240.349 362.652,246.015 361.5,251.5C 361.821,245.974 361.488,240.64 360.5,235.5C 360.5,234.833 360.5,234.167 360.5,233.5 Z"/></g>
<g><path style="opacity:0.137" fill="#ececec" d="M 139.5,230.5 C 139.5,231.5 139.5,232.5 139.5,233.5C 136.15,233.335 132.817,233.502 129.5,234C 129,234.5 128.5,235 128,235.5C 127.5,255.164 127.333,274.831 127.5,294.5C 126.338,274.671 126.171,254.671 127,234.5C 128.171,233.107 129.671,232.273 131.5,232C 134.254,231.728 136.921,231.228 139.5,230.5 Z"/></g>
<g><path style="opacity:1" fill="#93b3c8" d="M 336.5,236.5 C 336.5,236.167 336.5,235.833 336.5,235.5C 340.6,235.237 344.6,235.57 348.5,236.5C 348.5,255.833 348.5,275.167 348.5,294.5C 344.629,294.185 340.962,294.518 337.5,295.5C 336.833,295.5 336.5,295.833 336.5,296.5C 336.167,296.5 335.833,296.5 335.5,296.5C 335.557,295.391 335.89,294.391 336.5,293.5C 339.833,293.5 343.167,293.5 346.5,293.5C 346.5,274.5 346.5,255.5 346.5,236.5C 343.167,236.5 339.833,236.5 336.5,236.5 Z"/></g>
<g><path style="opacity:1" fill="#abd6ef" d="M 336.5,236.5 C 339.833,236.5 343.167,236.5 346.5,236.5C 346.5,255.5 346.5,274.5 346.5,293.5C 343.167,293.5 339.833,293.5 336.5,293.5C 335.854,291.844 335.187,290.177 334.5,288.5C 335.817,273.174 335.817,257.84 334.5,242.5C 334.611,240.286 335.278,238.286 336.5,236.5 Z"/></g>
<g><path style="opacity:0.205" fill="#c0c1c3" d="M 360.5,235.5 C 361.488,240.64 361.821,245.974 361.5,251.5C 362.381,264.824 362.547,278.158 362,291.5C 362.197,296.114 360.031,298.114 355.5,297.5C 353.5,297.5 351.5,297.5 349.5,297.5C 349.5,298.5 349.5,299.5 349.5,300.5C 349.823,307.022 349.49,313.355 348.5,319.5C 348.5,319.167 348.5,318.833 348.5,318.5C 348.5,310.833 348.5,303.167 348.5,295.5C 352.5,295.5 356.5,295.5 360.5,295.5C 360.5,275.5 360.5,255.5 360.5,235.5 Z"/></g>
<g><path style="opacity:0.548" fill="#696f74" d="M 349.5,235.5 C 349.5,235.833 349.5,236.167 349.5,236.5C 349.5,255.5 349.5,274.5 349.5,293.5C 352.625,294.479 355.958,294.813 359.5,294.5C 359.5,274.833 359.5,255.167 359.5,235.5C 359.833,235.5 360.167,235.5 360.5,235.5C 360.5,255.5 360.5,275.5 360.5,295.5C 356.5,295.5 352.5,295.5 348.5,295.5C 348.5,303.167 348.5,310.833 348.5,318.5C 348.167,318.5 347.833,318.5 347.5,318.5C 347.5,310.833 347.5,303.167 347.5,295.5C 344.167,295.5 340.833,295.5 337.5,295.5C 340.962,294.518 344.629,294.185 348.5,294.5C 348.5,275.167 348.5,255.833 348.5,236.5C 348.5,235.833 348.833,235.5 349.5,235.5 Z"/></g>
<g><path style="opacity:1" fill="#323134" d="M 351.5,236.5 C 353.833,236.5 356.167,236.5 358.5,236.5C 358.5,255.5 358.5,274.5 358.5,293.5C 356.167,293.5 353.833,293.5 351.5,293.5C 350.31,274.026 350.31,255.026 351.5,236.5 Z"/></g>
<g><path style="opacity:0.763" fill="#4d4e50" d="M 349.5,236.5 C 349.5,236.167 349.5,235.833 349.5,235.5C 352.833,235.5 356.167,235.5 359.5,235.5C 359.5,255.167 359.5,274.833 359.5,294.5C 355.958,294.813 352.625,294.479 349.5,293.5C 350.167,293.5 350.833,293.5 351.5,293.5C 353.833,293.5 356.167,293.5 358.5,293.5C 358.5,274.5 358.5,255.5 358.5,236.5C 356.167,236.5 353.833,236.5 351.5,236.5C 350.833,236.5 350.167,236.5 349.5,236.5 Z"/></g>
<g><path style="opacity:1" fill="#283039" d="M 349.5,236.5 C 350.167,236.5 350.833,236.5 351.5,236.5C 350.31,255.026 350.31,274.026 351.5,293.5C 350.833,293.5 350.167,293.5 349.5,293.5C 349.5,274.5 349.5,255.5 349.5,236.5 Z"/></g>
<g><path style="opacity:0.204" fill="#f7f7f7" d="M 131.5,297.5 C 134.167,297.5 136.833,297.5 139.5,297.5C 139.5,298.833 139.5,300.167 139.5,301.5C 138.733,300.828 138.066,299.995 137.5,299C 135.292,298.809 133.292,298.309 131.5,297.5 Z"/></g>
<g><path style="opacity:0.713" fill="#7c7c7c" d="M 140.5,295.5 C 144.702,295.183 148.702,295.517 152.5,296.5C 152.5,296.833 152.5,297.167 152.5,297.5C 152.167,297.5 151.833,297.5 151.5,297.5C 148.375,296.521 145.042,296.187 141.5,296.5C 141.5,303.833 141.5,311.167 141.5,318.5C 141.167,318.5 140.833,318.5 140.5,318.5C 140.5,310.833 140.5,303.167 140.5,295.5 Z"/></g>
<g><path style="opacity:0.086" fill="#f9f2f5" d="M 355.5,297.5 C 353.574,298.486 351.574,299.486 349.5,300.5C 349.5,299.5 349.5,298.5 349.5,297.5C 351.5,297.5 353.5,297.5 355.5,297.5 Z"/></g>
<g><path style="opacity:1" fill="#666666" d="M 151.5,297.5 C 151.833,297.5 152.167,297.5 152.5,297.5C 152.5,304.833 152.5,312.167 152.5,319.5C 148.629,319.815 144.962,319.482 141.5,318.5C 141.833,318.5 142.167,318.5 142.5,318.5C 145.5,318.5 148.5,318.5 151.5,318.5C 151.5,311.5 151.5,304.5 151.5,297.5 Z"/></g>
<g><path style="opacity:1" fill="#323232" d="M 151.5,297.5 C 151.5,304.5 151.5,311.5 151.5,318.5C 148.5,318.5 145.5,318.5 142.5,318.5C 142.334,311.825 142.5,305.158 143,298.5C 145.719,297.556 148.552,297.223 151.5,297.5 Z"/></g>
<g><path style="opacity:0.908" fill="#505050" d="M 151.5,297.5 C 148.552,297.223 145.719,297.556 143,298.5C 142.5,305.158 142.334,311.825 142.5,318.5C 142.167,318.5 141.833,318.5 141.5,318.5C 141.5,311.167 141.5,303.833 141.5,296.5C 145.042,296.187 148.375,296.521 151.5,297.5 Z"/></g>
<g><path style="opacity:1" fill="#565d60" d="M 337.5,295.5 C 340.833,295.5 344.167,295.5 347.5,295.5C 347.5,303.167 347.5,310.833 347.5,318.5C 344.038,319.482 340.371,319.815 336.5,319.5C 336.5,311.833 336.5,304.167 336.5,296.5C 336.5,295.833 336.833,295.5 337.5,295.5 Z"/></g>
<g><path style="opacity:1" fill="#303333" d="M 337.5,297.5 C 340.5,297.5 343.5,297.5 346.5,297.5C 346.5,304.5 346.5,311.5 346.5,318.5C 343.5,318.5 340.5,318.5 337.5,318.5C 337.5,311.5 337.5,304.5 337.5,297.5 Z"/></g>
<g><path style="opacity:0.269" fill="#c2c2c2" d="M 128.5,295.5 C 132.5,295.5 136.5,295.5 140.5,295.5C 140.5,303.167 140.5,310.833 140.5,318.5C 140.5,319.167 140.5,319.833 140.5,320.5C 139.51,314.355 139.177,308.022 139.5,301.5C 139.5,300.167 139.5,298.833 139.5,297.5C 136.833,297.5 134.167,297.5 131.5,297.5C 129.821,297.715 128.821,297.048 128.5,295.5 Z"/></g>
<g><path style="opacity:1" fill="#accad7" d="M 335.5,296.5 C 336.081,304.441 335.414,312.108 333.5,319.5C 330.061,319.253 326.728,319.586 323.5,320.5C 323.5,319.833 323.5,319.167 323.5,318.5C 323.833,318.5 324.167,318.5 324.5,318.5C 326.924,318.808 329.257,318.474 331.5,317.5C 331.715,314.997 331.048,312.497 329.5,310C 331.319,309.26 332.652,308.093 333.5,306.5C 332.931,302.671 333.598,299.337 335.5,296.5 Z"/></g>
<g><path style="opacity:1" fill="#b0dcee" d="M 333.5,306.5 C 332.652,308.093 331.319,309.26 329.5,310C 331.048,312.497 331.715,314.997 331.5,317.5C 329.257,318.474 326.924,318.808 324.5,318.5C 323.57,314.6 323.237,310.6 323.5,306.5C 326.833,306.5 330.167,306.5 333.5,306.5 Z"/></g>
<g><path style="opacity:0.18" fill="#dcdcd7" d="M 348.5,320.5 C 345.393,321.981 342.059,323.148 338.5,324C 337.577,326.041 337.244,328.208 337.5,330.5C 336.182,327.435 336.182,324.269 337.5,321C 341.152,320.501 344.818,320.335 348.5,320.5 Z"/></g>
<g><path style="opacity:1" fill="#afd5ea" d="M 323.5,318.5 C 323.5,319.167 323.5,319.833 323.5,320.5C 322.373,321.122 321.373,321.955 320.5,323C 321.435,325.381 321.768,327.881 321.5,330.5C 318.167,330.5 314.833,330.5 311.5,330.5C 311.207,326.563 311.54,322.73 312.5,319C 316.149,319.82 319.816,319.653 323.5,318.5 Z"/></g>
<g><path style="opacity:0.235" fill="#d4d4d4" d="M 141.5,320.5 C 145.167,320.5 148.833,320.5 152.5,320.5C 152.185,324.371 152.518,328.038 153.5,331.5C 156.962,332.482 160.629,332.815 164.5,332.5C 164.5,336.167 164.5,339.833 164.5,343.5C 163.996,340.547 162.996,337.714 161.5,335C 158.833,334.667 156.167,334.333 153.5,334C 153,333.5 152.5,333 152,332.5C 151.82,329.044 151.153,325.711 150,322.5C 147.061,321.872 144.228,321.205 141.5,320.5 Z"/></g>
<g><path style="opacity:1" fill="#6a808e" d="M 333.5,319.5 C 334.492,319.328 335.158,319.662 335.5,320.5C 332.15,320.335 328.817,320.502 325.5,321C 324.549,324.057 324.216,327.223 324.5,330.5C 324.167,330.5 323.833,330.5 323.5,330.5C 323.5,327.167 323.5,323.833 323.5,320.5C 326.728,319.586 330.061,319.253 333.5,319.5 Z"/></g>
<g><path style="opacity:1" fill="#9cbbcd" d="M 323.5,320.5 C 323.5,323.833 323.5,327.167 323.5,330.5C 319.833,331.167 316.167,331.833 312.5,332.5C 312.167,332.5 311.833,332.5 311.5,332.5C 311.5,331.833 311.5,331.167 311.5,330.5C 314.833,330.5 318.167,330.5 321.5,330.5C 321.768,327.881 321.435,325.381 320.5,323C 321.373,321.955 322.373,321.122 323.5,320.5 Z"/></g>
<g><path style="opacity:1" fill="#dbdbdb" d="M 153.5,297.5 C 154.491,304.313 154.825,311.313 154.5,318.5C 158.833,318.5 163.167,318.5 167.5,318.5C 167.5,322.5 167.5,326.5 167.5,330.5C 170.5,330.5 173.5,330.5 176.5,330.5C 176.5,330.833 176.5,331.167 176.5,331.5C 172.833,331.5 169.167,331.5 165.5,331.5C 165.5,327.5 165.5,323.5 165.5,319.5C 161.5,319.5 157.5,319.5 153.5,319.5C 153.5,312.167 153.5,304.833 153.5,297.5 Z"/></g>
<g><path style="opacity:0.699" fill="#4c5356" d="M 335.5,320.5 C 335.5,324.167 335.5,327.833 335.5,331.5C 331.629,331.815 327.962,331.482 324.5,330.5C 324.216,327.223 324.549,324.057 325.5,321C 328.817,320.502 332.15,320.335 335.5,320.5 Z"/></g>
<g><path style="opacity:1" fill="#2f3432" d="M 325.5,322.5 C 328.5,322.5 331.5,322.5 334.5,322.5C 334.5,325.167 334.5,327.833 334.5,330.5C 331.5,330.5 328.5,330.5 325.5,330.5C 325.5,327.833 325.5,325.167 325.5,322.5 Z"/></g>
<g><path style="opacity:0.693" fill="#979898" d="M 152.5,296.5 C 152.833,296.5 153.167,296.5 153.5,296.5C 153.5,296.833 153.5,297.167 153.5,297.5C 153.5,304.833 153.5,312.167 153.5,319.5C 157.5,319.5 161.5,319.5 165.5,319.5C 165.5,323.5 165.5,327.5 165.5,331.5C 169.167,331.5 172.833,331.5 176.5,331.5C 176.5,331.833 176.5,332.167 176.5,332.5C 172.833,332.5 169.167,332.5 165.5,332.5C 165.5,336.167 165.5,339.833 165.5,343.5C 169.167,343.5 172.833,343.5 176.5,343.5C 176.5,343.833 176.5,344.167 176.5,344.5C 172.833,344.5 169.167,344.5 165.5,344.5C 164.833,344.5 164.5,344.167 164.5,343.5C 164.5,339.833 164.5,336.167 164.5,332.5C 160.629,332.815 156.962,332.482 153.5,331.5C 152.518,328.038 152.185,324.371 152.5,320.5C 148.833,320.5 145.167,320.5 141.5,320.5C 141.167,320.5 140.833,320.5 140.5,320.5C 140.5,319.833 140.5,319.167 140.5,318.5C 140.833,318.5 141.167,318.5 141.5,318.5C 144.962,319.482 148.629,319.815 152.5,319.5C 152.5,312.167 152.5,304.833 152.5,297.5C 152.5,297.167 152.5,296.833 152.5,296.5 Z"/></g>
<g><path style="opacity:1" fill="#323232" d="M 153.5,330.5 C 153.5,329.833 153.5,329.167 153.5,328.5C 154.468,326.393 154.802,324.059 154.5,321.5C 157.5,321.5 160.5,321.5 163.5,321.5C 163.5,324.5 163.5,327.5 163.5,330.5C 160.167,330.5 156.833,330.5 153.5,330.5 Z"/></g>
<g><path style="opacity:1" fill="#595959" d="M 153.5,331.5 C 153.5,331.167 153.5,330.833 153.5,330.5C 156.833,330.5 160.167,330.5 163.5,330.5C 163.5,327.5 163.5,324.5 163.5,321.5C 160.5,321.5 157.5,321.5 154.5,321.5C 154.802,324.059 154.468,326.393 153.5,328.5C 153.5,325.833 153.5,323.167 153.5,320.5C 157.167,320.5 160.833,320.5 164.5,320.5C 164.5,324.167 164.5,327.833 164.5,331.5C 160.833,331.5 157.167,331.5 153.5,331.5 Z"/></g>
<g><path style="opacity:0.691" fill="#8f9698" d="M 335.5,296.5 C 335.833,296.5 336.167,296.5 336.5,296.5C 336.5,304.167 336.5,311.833 336.5,319.5C 340.371,319.815 344.038,319.482 347.5,318.5C 347.833,318.5 348.167,318.5 348.5,318.5C 348.5,318.833 348.5,319.167 348.5,319.5C 348.5,319.833 348.5,320.167 348.5,320.5C 344.818,320.335 341.152,320.501 337.5,321C 336.182,324.269 336.182,327.435 337.5,330.5C 337.167,331.167 336.833,331.833 336.5,332.5C 332.5,332.5 328.5,332.5 324.5,332.5C 324.5,335.5 324.5,338.5 324.5,341.5C 324.737,342.791 324.404,343.791 323.5,344.5C 319.833,344.5 316.167,344.5 312.5,344.5C 312.5,346.833 312.5,349.167 312.5,351.5C 312.737,352.791 312.404,353.791 311.5,354.5C 311.5,351.167 311.5,347.833 311.5,344.5C 311.5,344.167 311.5,343.833 311.5,343.5C 311.5,339.833 311.5,336.167 311.5,332.5C 311.833,332.5 312.167,332.5 312.5,332.5C 316.167,331.833 319.833,331.167 323.5,330.5C 323.833,330.5 324.167,330.5 324.5,330.5C 327.962,331.482 331.629,331.815 335.5,331.5C 335.5,327.833 335.5,324.167 335.5,320.5C 335.158,319.662 334.492,319.328 333.5,319.5C 335.414,312.108 336.081,304.441 335.5,296.5 Z"/></g>
<g><path style="opacity:1" fill="#b3d6e5" d="M 176.5,332.5 C 176.5,332.167 176.5,331.833 176.5,331.5C 177.833,331.5 179.167,331.5 180.5,331.5C 182.857,331.337 185.19,331.503 187.5,332C 186.584,332.278 185.918,332.778 185.5,333.5C 184.139,337.066 185.472,339.566 189.5,341C 188.944,341.383 188.611,341.883 188.5,342.5C 185.167,342.5 181.833,342.5 178.5,342.5C 178.81,339.287 178.477,336.287 177.5,333.5C 177.5,332.833 177.167,332.5 176.5,332.5 Z"/></g>
<g><path style="opacity:0.418" fill="#d6dada" d="M 336.5,332.5 C 333.79,334.108 330.79,335.275 327.5,336C 326.131,337.719 325.131,339.552 324.5,341.5C 324.5,338.5 324.5,335.5 324.5,332.5C 328.5,332.5 332.5,332.5 336.5,332.5 Z"/></g>
<g><path style="opacity:1" fill="#404243" d="M 176.5,333.5 C 176.5,336.5 176.5,339.5 176.5,342.5C 176.167,342.5 175.833,342.5 175.5,342.5C 174.178,340.198 174.178,337.865 175.5,335.5C 172.914,334.52 170.247,334.187 167.5,334.5C 167.5,337.167 167.5,339.833 167.5,342.5C 166.523,339.713 166.19,336.713 166.5,333.5C 169.833,333.5 173.167,333.5 176.5,333.5 Z"/></g>
<g><path style="opacity:1" fill="#302f2e" d="M 175.5,342.5 C 172.833,342.5 170.167,342.5 167.5,342.5C 167.5,339.833 167.5,337.167 167.5,334.5C 170.247,334.187 172.914,334.52 175.5,335.5C 174.178,337.865 174.178,340.198 175.5,342.5 Z"/></g>
<g><path style="opacity:0.859" fill="#585958" d="M 176.5,332.5 C 176.5,332.833 176.5,333.167 176.5,333.5C 173.167,333.5 169.833,333.5 166.5,333.5C 166.19,336.713 166.523,339.713 167.5,342.5C 170.167,342.5 172.833,342.5 175.5,342.5C 175.833,342.5 176.167,342.5 176.5,342.5C 176.5,342.833 176.5,343.167 176.5,343.5C 172.833,343.5 169.167,343.5 165.5,343.5C 165.5,339.833 165.5,336.167 165.5,332.5C 169.167,332.5 172.833,332.5 176.5,332.5 Z"/></g>
<g><path style="opacity:1" fill="#444e56" d="M 312.5,332.5 C 316.167,332.5 319.833,332.5 323.5,332.5C 323.5,336.167 323.5,339.833 323.5,343.5C 319.833,343.5 316.167,343.5 312.5,343.5C 312.5,339.833 312.5,336.167 312.5,332.5 Z"/></g>
<g><path style="opacity:1" fill="#2e3335" d="M 313.5,334.5 C 316.5,334.5 319.5,334.5 322.5,334.5C 322.5,337.167 322.5,339.833 322.5,342.5C 319.5,342.5 316.5,342.5 313.5,342.5C 313.5,339.833 313.5,337.167 313.5,334.5 Z"/></g>
<g><path style="opacity:1" fill="#add6f3" d="M 201.5,342.5 C 197.167,342.5 192.833,342.5 188.5,342.5C 188.611,341.883 188.944,341.383 189.5,341C 185.472,339.566 184.139,337.066 185.5,333.5C 190.797,332.725 196.13,332.392 201.5,332.5C 201.5,335.833 201.5,339.167 201.5,342.5 Z"/></g>
<g><path style="opacity:1" fill="#c5e2f8" d="M 286.5,333.5 C 287.892,336.025 287.558,338.192 285.5,340C 286.381,340.708 287.047,341.542 287.5,342.5C 287.5,342.833 287.5,343.167 287.5,343.5C 287.167,343.5 286.833,343.5 286.5,343.5C 285.833,343.5 285.167,343.5 284.5,343.5C 266.326,343.17 248.326,343.503 230.5,344.5C 221.35,344.596 212.35,344.596 203.5,344.5C 203.167,344.5 202.833,344.5 202.5,344.5C 202.5,343.833 202.167,343.5 201.5,343.5C 201.5,343.167 201.5,342.833 201.5,342.5C 201.5,339.167 201.5,335.833 201.5,332.5C 196.13,332.392 190.797,332.725 185.5,333.5C 185.918,332.778 186.584,332.278 187.5,332C 185.19,331.503 182.857,331.337 180.5,331.5C 187.655,330.345 194.988,330.178 202.5,331C 203.851,332.617 205.518,333.784 207.5,334.5C 203.456,335.594 201.789,338.261 202.5,342.5C 205.319,342.869 208.152,343.202 211,343.5C 228.599,339.808 246.432,337.975 264.5,338C 265.337,336.989 265.67,335.822 265.5,334.5C 270.179,334.666 274.845,334.499 279.5,334C 281.201,328.54 282.701,329.04 284,335.5C 284.417,334.244 285.25,333.577 286.5,333.5 Z"/></g>
<g><path style="opacity:1" fill="#aed6ea" d="M 311.5,330.5 C 311.5,331.167 311.5,331.833 311.5,332.5C 310.521,335.625 310.187,338.958 310.5,342.5C 302.833,342.5 295.167,342.5 287.5,342.5C 287.047,341.542 286.381,340.708 285.5,340C 287.558,338.192 287.892,336.025 286.5,333.5C 293.688,332.243 300.855,330.909 308,329.5C 309.011,330.337 310.178,330.67 311.5,330.5 Z"/></g>
<g><path style="opacity:1" fill="#9cb7c6" d="M 177.5,333.5 C 178.477,336.287 178.81,339.287 178.5,342.5C 181.833,342.5 185.167,342.5 188.5,342.5C 192.833,342.5 197.167,342.5 201.5,342.5C 201.5,342.833 201.5,343.167 201.5,343.5C 193.5,343.5 185.5,343.5 177.5,343.5C 177.5,340.167 177.5,336.833 177.5,333.5 Z"/></g>
<g><path style="opacity:1" fill="#99b6c4" d="M 311.5,332.5 C 311.5,336.167 311.5,339.833 311.5,343.5C 303.5,343.5 295.5,343.5 287.5,343.5C 287.5,343.167 287.5,342.833 287.5,342.5C 295.167,342.5 302.833,342.5 310.5,342.5C 310.187,338.958 310.521,335.625 311.5,332.5 Z"/></g>
<g><path style="opacity:1" fill="#758d97" d="M 286.5,343.5 C 286.833,343.5 287.167,343.5 287.5,343.5C 295.5,343.5 303.5,343.5 311.5,343.5C 311.5,343.833 311.5,344.167 311.5,344.5C 303.5,344.5 295.5,344.5 287.5,344.5C 287.5,347.5 287.5,350.5 287.5,353.5C 287.167,353.5 286.833,353.5 286.5,353.5C 286.5,350.167 286.5,346.833 286.5,343.5 Z"/></g>
<g><path style="opacity:1" fill="#b3d6ec" d="M 284.5,343.5 C 284.5,347.167 284.5,350.833 284.5,354.5C 257.833,354.5 231.167,354.5 204.5,354.5C 203.777,351.116 203.444,347.783 203.5,344.5C 212.35,344.596 221.35,344.596 230.5,344.5C 248.326,343.503 266.326,343.17 284.5,343.5 Z"/></g>
<g><path style="opacity:1" fill="#505d61" d="M 311.5,344.5 C 311.5,347.833 311.5,351.167 311.5,354.5C 311.5,354.833 311.5,355.167 311.5,355.5C 311.167,355.5 310.833,355.5 310.5,355.5C 310.81,352.287 310.477,349.287 309.5,346.5C 302.687,345.509 295.687,345.175 288.5,345.5C 288.5,348.5 288.5,351.5 288.5,354.5C 288.5,354.833 288.5,355.167 288.5,355.5C 287.662,355.158 287.328,354.492 287.5,353.5C 287.5,350.5 287.5,347.5 287.5,344.5C 295.5,344.5 303.5,344.5 311.5,344.5 Z"/></g>
<g><path style="opacity:0.024" fill="#dfe0e0" d="M 168.5,345.5 C 171.167,345.5 173.833,345.5 176.5,345.5C 176.5,347.167 176.5,348.833 176.5,350.5C 175.566,349.432 175.232,348.099 175.5,346.5C 172.941,346.802 170.607,346.468 168.5,345.5 Z"/></g>
<g><path style="opacity:1" fill="#43515d" d="M 185.5,344.5 C 190.833,344.5 196.167,344.5 201.5,344.5C 201.5,347.167 201.5,349.833 201.5,352.5C 201.737,353.791 201.404,354.791 200.5,355.5C 200.5,355.167 200.5,354.833 200.5,354.5C 200.5,351.833 200.5,349.167 200.5,346.5C 193.167,346.5 185.833,346.5 178.5,346.5C 180.833,345.833 183.167,345.167 185.5,344.5 Z"/></g>
<g><path style="opacity:0.2" fill="#dbdbdd" d="M 323.5,344.5 C 323.389,345.117 323.056,345.617 322.5,346C 317.777,345.601 314.443,347.435 312.5,351.5C 312.5,349.167 312.5,346.833 312.5,344.5C 316.167,344.5 319.833,344.5 323.5,344.5 Z"/></g>
<g><path style="opacity:0.788" fill="#586363" d="M 177.5,344.5 C 180.167,344.5 182.833,344.5 185.5,344.5C 183.167,345.167 180.833,345.833 178.5,346.5C 178.5,347.5 178.5,348.5 178.5,349.5C 178.5,351.5 178.5,353.5 178.5,355.5C 178.167,355.5 177.833,355.5 177.5,355.5C 177.5,351.833 177.5,348.167 177.5,344.5 Z"/></g>
<g><path style="opacity:0.397" fill="#b3b6b4" d="M 165.5,344.5 C 169.167,344.5 172.833,344.5 176.5,344.5C 176.833,344.5 177.167,344.5 177.5,344.5C 177.5,348.167 177.5,351.833 177.5,355.5C 177.5,355.833 177.5,356.167 177.5,356.5C 176.539,354.735 176.205,352.735 176.5,350.5C 176.5,348.833 176.5,347.167 176.5,345.5C 173.833,345.5 171.167,345.5 168.5,345.5C 167.209,345.737 166.209,345.404 165.5,344.5 Z"/></g>
<g><path style="opacity:1" fill="#79909d" d="M 176.5,332.5 C 177.167,332.5 177.5,332.833 177.5,333.5C 177.5,336.833 177.5,340.167 177.5,343.5C 185.5,343.5 193.5,343.5 201.5,343.5C 202.167,343.5 202.5,343.833 202.5,344.5C 202.5,347.167 202.5,349.833 202.5,352.5C 202.167,352.5 201.833,352.5 201.5,352.5C 201.5,349.833 201.5,347.167 201.5,344.5C 196.167,344.5 190.833,344.5 185.5,344.5C 182.833,344.5 180.167,344.5 177.5,344.5C 177.167,344.5 176.833,344.5 176.5,344.5C 176.5,344.167 176.5,343.833 176.5,343.5C 176.5,343.167 176.5,342.833 176.5,342.5C 176.5,339.5 176.5,336.5 176.5,333.5C 176.5,333.167 176.5,332.833 176.5,332.5 Z"/></g>
<g><path style="opacity:1" fill="#2e3437" d="M 309.5,346.5 C 309.5,349.167 309.5,351.833 309.5,354.5C 302.5,354.5 295.5,354.5 288.5,354.5C 288.5,351.5 288.5,348.5 288.5,345.5C 295.687,345.175 302.687,345.509 309.5,346.5 Z"/></g>
<g><path style="opacity:1" fill="#2d3132" d="M 178.5,346.5 C 185.833,346.5 193.167,346.5 200.5,346.5C 200.5,349.167 200.5,351.833 200.5,354.5C 193.492,354.666 186.492,354.5 179.5,354C 181.043,351.955 180.71,350.455 178.5,349.5C 178.5,348.5 178.5,347.5 178.5,346.5 Z"/></g>
<g><path style="opacity:0.916" fill="#404341" d="M 178.5,349.5 C 180.71,350.455 181.043,351.955 179.5,354C 186.492,354.5 193.492,354.666 200.5,354.5C 200.5,354.833 200.5,355.167 200.5,355.5C 193.167,355.5 185.833,355.5 178.5,355.5C 178.5,353.5 178.5,351.5 178.5,349.5 Z"/></g>
<g><path style="opacity:1" fill="#afc8d8" d="M 284.5,343.5 C 285.167,343.5 285.833,343.5 286.5,343.5C 286.5,346.833 286.5,350.167 286.5,353.5C 286.5,354.833 285.833,355.5 284.5,355.5C 257.167,355.5 229.833,355.5 202.5,355.5C 202.5,354.5 202.5,353.5 202.5,352.5C 202.5,349.833 202.5,347.167 202.5,344.5C 202.833,344.5 203.167,344.5 203.5,344.5C 203.444,347.783 203.777,351.116 204.5,354.5C 231.167,354.5 257.833,354.5 284.5,354.5C 284.5,350.833 284.5,347.167 284.5,343.5 Z"/></g>
<g><path style="opacity:1" fill="#aad4ee" d="M 230.5,344.5 C 247.853,344.324 265.186,344.824 282.5,346C 282.014,348.027 282.014,350.193 282.5,352.5C 258.197,352.746 234.197,352.246 210.5,351C 208.754,350.529 207.087,349.862 205.5,349C 206.416,348.626 207.25,348.126 208,347.5C 210.667,348.167 213.333,348.833 216,349.5C 220.757,347.465 225.59,345.799 230.5,344.5 Z"/></g>
<g><path style="opacity:0.742" fill="#434344" d="M 309.5,346.5 C 310.477,349.287 310.81,352.287 310.5,355.5C 303.167,355.5 295.833,355.5 288.5,355.5C 288.5,355.167 288.5,354.833 288.5,354.5C 295.5,354.5 302.5,354.5 309.5,354.5C 309.5,351.833 309.5,349.167 309.5,346.5 Z"/></g>
<g><path style="opacity:0.253" fill="#c0c0c0" d="M 309.5,356.5 C 302.952,357.168 296.285,358.001 289.5,359C 288.877,361.607 288.21,364.107 287.5,366.5C 287.5,363.167 287.5,359.833 287.5,356.5C 294.833,356.5 302.167,356.5 309.5,356.5 Z"/></g>
<g><path style="opacity:1" fill="#47545f" d="M 202.5,357.5 C 229.662,356.502 256.995,356.169 284.5,356.5C 286.048,356.821 286.715,357.821 286.5,359.5C 285.833,359.5 285.167,359.5 284.5,359.5C 258.005,358.502 231.339,358.169 204.5,358.5C 204.158,357.662 203.492,357.328 202.5,357.5 Z"/></g>
<g><path style="opacity:0.625" fill="#868f95" d="M 201.5,352.5 C 201.833,352.5 202.167,352.5 202.5,352.5C 202.5,353.5 202.5,354.5 202.5,355.5C 229.833,355.5 257.167,355.5 284.5,355.5C 284.5,355.833 284.5,356.167 284.5,356.5C 256.995,356.169 229.662,356.502 202.5,357.5C 202.5,360.833 202.5,364.167 202.5,367.5C 201.518,364.038 201.185,360.371 201.5,356.5C 193.5,356.5 185.5,356.5 177.5,356.5C 177.5,356.167 177.5,355.833 177.5,355.5C 177.833,355.5 178.167,355.5 178.5,355.5C 185.833,355.5 193.167,355.5 200.5,355.5C 201.404,354.791 201.737,353.791 201.5,352.5 Z"/></g>
<g><path style="opacity:0.361" fill="#d4d3d3" d="M 177.5,356.5 C 185.5,356.5 193.5,356.5 201.5,356.5C 201.185,360.371 201.518,364.038 202.5,367.5C 202.5,367.833 202.5,368.167 202.5,368.5C 202.5,368.833 202.5,369.167 202.5,369.5C 201.883,369.389 201.383,369.056 201,368.5C 200.81,364.812 199.976,361.312 198.5,358C 192.854,357.691 187.354,358.524 182,360.5C 180.56,359.852 179.06,359.519 177.5,359.5C 177.5,358.5 177.5,357.5 177.5,356.5 Z"/></g>
<g><path style="opacity:1" fill="#2d3033" d="M 204.5,358.5 C 231.339,358.169 258.005,358.502 284.5,359.5C 284.5,360.5 284.5,361.5 284.5,362.5C 258.5,362.5 232.5,362.5 206.5,362.5C 206.649,363.552 206.483,364.552 206,365.5C 204.648,363.406 204.148,361.073 204.5,358.5 Z"/></g>
<g><path style="opacity:0.999" fill="#343331" d="M 202.5,357.5 C 203.492,357.328 204.158,357.662 204.5,358.5C 204.148,361.073 204.648,363.406 206,365.5C 206.483,364.552 206.649,363.552 206.5,362.5C 232.5,362.5 258.5,362.5 284.5,362.5C 284.5,361.5 284.5,360.5 284.5,359.5C 285.167,359.5 285.833,359.5 286.5,359.5C 286.5,362.167 286.5,364.833 286.5,367.5C 258.5,367.5 230.5,367.5 202.5,367.5C 202.5,364.167 202.5,360.833 202.5,357.5 Z"/></g>
<g><path style="opacity:0.632" fill="#797a79" d="M 286.5,353.5 C 286.833,353.5 287.167,353.5 287.5,353.5C 287.328,354.492 287.662,355.158 288.5,355.5C 295.833,355.5 303.167,355.5 310.5,355.5C 310.833,355.5 311.167,355.5 311.5,355.5C 311.158,356.338 310.492,356.672 309.5,356.5C 302.167,356.5 294.833,356.5 287.5,356.5C 287.5,359.833 287.5,363.167 287.5,366.5C 287.5,367.833 286.833,368.5 285.5,368.5C 257.833,368.5 230.167,368.5 202.5,368.5C 202.5,368.167 202.5,367.833 202.5,367.5C 230.5,367.5 258.5,367.5 286.5,367.5C 286.5,364.833 286.5,362.167 286.5,359.5C 286.715,357.821 286.048,356.821 284.5,356.5C 284.5,356.167 284.5,355.833 284.5,355.5C 285.833,355.5 286.5,354.833 286.5,353.5 Z"/></g>
<g><path style="opacity:0.226" fill="#b2b2b2" d="M 202.5,369.5 C 202.5,369.167 202.5,368.833 202.5,368.5C 230.167,368.5 257.833,368.5 285.5,368.5C 259.489,369.198 233.322,369.864 207,370.5C 205.408,370.395 203.908,370.061 202.5,369.5 Z"/></g>
</svg>
